<svg width="244" height="84" viewBox="0 0 244 84" fill="none" xmlns="http://www.w3.org/2000/svg">
<path d="M205.342 41.9998V28.2634H213.632V29.739H207.005V34.3804H213.203V35.856H207.005V40.5243H213.739V41.9998H205.342Z" fill="#48566A"/>
<path d="M217.76 28.2634L221.838 39.8267H221.999L226.077 28.2634H227.821L222.777 41.9998H221.06L216.016 28.2634H217.76Z" fill="#48566A"/>
<path d="M230.527 28.2634H232.513L237.181 39.6657H237.342L242.01 28.2634H243.995V41.9998H242.439V31.5634H242.305L238.012 41.9998H236.51L232.217 31.5634H232.083V41.9998H230.527V28.2634Z" fill="#48566A"/>
<g clip-path="url(#clip0_4753_16661)">
<path d="M60.2073 26.0364C61.6017 26.0364 62.732 24.9089 62.732 23.5182C62.732 22.1274 61.6017 21 60.2073 21C58.813 21 57.6826 22.1274 57.6826 23.5182C57.6826 24.9089 58.813 26.0364 60.2073 26.0364Z" fill="black"/>
<path d="M63.0476 61.6062C64.442 61.6062 65.5723 60.4788 65.5723 59.088C65.5723 57.6972 64.442 56.5698 63.0476 56.5698C61.6533 56.5698 60.5229 57.6972 60.5229 59.088C60.5229 60.4788 61.6533 61.6062 63.0476 61.6062Z" fill="black"/>
<path d="M60.9288 32.3319C62.099 32.3319 63.0477 31.3857 63.0477 30.2185C63.0477 29.0512 62.099 28.105 60.9288 28.105C59.7585 28.105 58.8098 29.0512 58.8098 30.2185C58.8098 31.3857 59.7585 32.3319 60.9288 32.3319Z" fill="black"/>
<path d="M66.5647 33.1413C67.735 33.1413 68.6837 32.195 68.6837 31.0278C68.6837 29.8605 67.735 28.9143 66.5647 28.9143C65.3945 28.9143 64.4458 29.8605 64.4458 31.0278C64.4458 32.195 65.3945 33.1413 66.5647 33.1413Z" fill="black"/>
<path d="M60.2076 37.6831C61.2036 37.6831 62.011 36.8778 62.011 35.8844C62.011 34.891 61.2036 34.0857 60.2076 34.0857C59.2117 34.0857 58.4043 34.891 58.4043 35.8844C58.4043 36.8778 59.2117 37.6831 60.2076 37.6831Z" fill="black"/>
<path d="M65.8429 38.4478C66.8389 38.4478 67.6463 37.6424 67.6463 36.649C67.6463 35.6557 66.8389 34.8503 65.8429 34.8503C64.8469 34.8503 64.0396 35.6557 64.0396 36.649C64.0396 37.6424 64.8469 38.4478 65.8429 38.4478Z" fill="black"/>
<path d="M70.3515 40.2014C71.3474 40.2014 72.1548 39.3961 72.1548 38.4027C72.1548 37.4093 71.3474 36.604 70.3515 36.604C69.3555 36.604 68.5481 37.4093 68.5481 38.4027C68.5481 39.3961 69.3555 40.2014 70.3515 40.2014Z" fill="black"/>
<path d="M64.1746 42.7644C65.0461 42.7644 65.7525 42.0598 65.7525 41.1906C65.7525 40.3213 65.0461 39.6167 64.1746 39.6167C63.3031 39.6167 62.5967 40.3213 62.5967 41.1906C62.5967 42.0598 63.3031 42.7644 64.1746 42.7644Z" fill="black"/>
<path d="M58.5396 41.9995C59.4111 41.9995 60.1175 41.2949 60.1175 40.4257C60.1175 39.5565 59.4111 38.8518 58.5396 38.8518C57.6681 38.8518 56.9617 39.5565 56.9617 40.4257C56.9617 41.2949 57.6681 41.9995 58.5396 41.9995Z" fill="black"/>
<path d="M68.7281 44.5179C69.5995 44.5179 70.306 43.8132 70.306 42.944C70.306 42.0748 69.5995 41.3701 68.7281 41.3701C67.8566 41.3701 67.1501 42.0748 67.1501 42.944C67.1501 43.8132 67.8566 44.5179 68.7281 44.5179Z" fill="black"/>
<path d="M61.9209 46.0467C62.6678 46.0467 63.2734 45.4427 63.2734 44.6977C63.2734 43.9526 62.6678 43.3486 61.9209 43.3486C61.1739 43.3486 60.5684 43.9526 60.5684 44.6977C60.5684 45.4427 61.1739 46.0467 61.9209 46.0467Z" fill="black"/>
<path d="M66.4743 47.7557C67.2213 47.7557 67.8269 47.1517 67.8269 46.4066C67.8269 45.6616 67.2213 45.0576 66.4743 45.0576C65.7274 45.0576 65.1218 45.6616 65.1218 46.4066C65.1218 47.1517 65.7274 47.7557 66.4743 47.7557Z" fill="black"/>
<path d="M56.3301 45.2371C57.077 45.2371 57.6826 44.6331 57.6826 43.8881C57.6826 43.143 57.077 42.5391 56.3301 42.5391C55.5831 42.5391 54.9775 43.143 54.9775 43.8881C54.9775 44.6331 55.5831 45.2371 56.3301 45.2371Z" fill="black"/>
<path d="M59.4408 48.2506C60.0633 48.2506 60.5679 47.7473 60.5679 47.1264C60.5679 46.5055 60.0633 46.0022 59.4408 46.0022C58.8183 46.0022 58.3137 46.5055 58.3137 47.1264C58.3137 47.7473 58.8183 48.2506 59.4408 48.2506Z" fill="black"/>
<path d="M61.3795 51.3533C61.9273 51.3533 62.3714 50.9104 62.3714 50.364C62.3714 49.8177 61.9273 49.3748 61.3795 49.3748C60.8318 49.3748 60.3877 49.8177 60.3877 50.364C60.3877 50.9104 60.8318 51.3533 61.3795 51.3533Z" fill="black"/>
<path d="M58.99 51.9831C59.4382 51.9831 59.8015 51.6207 59.8015 51.1737C59.8015 50.7266 59.4382 50.3643 58.99 50.3643C58.5418 50.3643 58.1785 50.7266 58.1785 51.1737C58.1785 51.6207 58.5418 51.9831 58.99 51.9831Z" fill="black"/>
<path d="M56.8712 49.6443C57.419 49.6443 57.8631 49.2014 57.8631 48.6551C57.8631 48.1087 57.419 47.6658 56.8712 47.6658C56.3235 47.6658 55.8794 48.1087 55.8794 48.6551C55.8794 49.2014 56.3235 49.6443 56.8712 49.6443Z" fill="black"/>
<path d="M53.8058 47.4862C54.4283 47.4862 54.9329 46.9829 54.9329 46.362C54.9329 45.7411 54.4283 45.2378 53.8058 45.2378C53.1833 45.2378 52.6787 45.7411 52.6787 46.362C52.6787 46.9829 53.1833 47.4862 53.8058 47.4862Z" fill="black"/>
<path d="M53.7604 39.0316C54.3829 39.0316 54.8875 38.5283 54.8875 37.9074C54.8875 37.2865 54.3829 36.7832 53.7604 36.7832C53.1379 36.7832 52.6333 37.2865 52.6333 37.9074C52.6333 38.5283 53.1379 39.0316 53.7604 39.0316Z" fill="black"/>
<path d="M54.2565 35.0745C54.8043 35.0745 55.2483 34.6316 55.2483 34.0852C55.2483 33.5389 54.8043 33.0959 54.2565 33.0959C53.7087 33.0959 53.2646 33.5389 53.2646 34.0852C53.2646 34.6316 53.7087 35.0745 54.2565 35.0745Z" fill="black"/>
<path d="M55.3384 31.8369C55.7866 31.8369 56.1499 31.4745 56.1499 31.0274C56.1499 30.5804 55.7866 30.218 55.3384 30.218C54.8902 30.218 54.5269 30.5804 54.5269 31.0274C54.5269 31.4745 54.8902 31.8369 55.3384 31.8369Z" fill="black"/>
<path d="M53.445 30.3084C53.9927 30.3084 54.4368 29.8655 54.4368 29.3191C54.4368 28.7728 53.9927 28.3298 53.445 28.3298C52.8972 28.3298 52.4531 28.7728 52.4531 29.3191C52.4531 29.8655 52.8972 30.3084 53.445 30.3084Z" fill="black"/>
<path d="M63.9494 49.9588C64.5718 49.9588 65.0765 49.4555 65.0765 48.8346C65.0765 48.2138 64.5718 47.7104 63.9494 47.7104C63.3269 47.7104 62.8223 48.2138 62.8223 48.8346C62.8223 49.4555 63.3269 49.9588 63.9494 49.9588Z" fill="black"/>
<path d="M50.8751 29.0042C51.4976 29.0042 52.0022 28.5009 52.0022 27.8801C52.0022 27.2592 51.4976 26.7559 50.8751 26.7559C50.2527 26.7559 49.748 27.2592 49.748 27.8801C49.748 28.5009 50.2527 29.0042 50.8751 29.0042Z" fill="black"/>
<path d="M51.6415 33.7711C52.264 33.7711 52.7686 33.2678 52.7686 32.6469C52.7686 32.026 52.264 31.5227 51.6415 31.5227C51.019 31.5227 50.5144 32.026 50.5144 32.6469C50.5144 33.2678 51.019 33.7711 51.6415 33.7711Z" fill="black"/>
<path d="M50.3796 38.3123C51.1266 38.3123 51.7321 37.7083 51.7321 36.9633C51.7321 36.2182 51.1266 35.6143 50.3796 35.6143C49.6326 35.6143 49.0271 36.2182 49.0271 36.9633C49.0271 37.7083 49.6326 38.3123 50.3796 38.3123Z" fill="black"/>
<path d="M46.2764 38.3123C47.1479 38.3123 47.8544 37.6076 47.8544 36.7384C47.8544 35.8692 47.1479 35.1646 46.2764 35.1646C45.405 35.1646 44.6985 35.8692 44.6985 36.7384C44.6985 37.6076 45.405 38.3123 46.2764 38.3123Z" fill="black"/>
<path d="M41.4979 39.3918C42.4939 39.3918 43.3013 38.5865 43.3013 37.5931C43.3013 36.5997 42.4939 35.7944 41.4979 35.7944C40.502 35.7944 39.6946 36.5997 39.6946 37.5931C39.6946 38.5865 40.502 39.3918 41.4979 39.3918Z" fill="black"/>
<path d="M36.2681 41.9555C37.4384 41.9555 38.3871 41.0092 38.3871 39.842C38.3871 38.6748 37.4384 37.7285 36.2681 37.7285C35.0979 37.7285 34.1492 38.6748 34.1492 39.842C34.1492 41.0092 35.0979 41.9555 36.2681 41.9555Z" fill="black"/>
<path d="M30.8579 46.272C32.2523 46.272 33.3826 45.1445 33.3826 43.7538C33.3826 42.363 32.2523 41.2356 30.8579 41.2356C29.4636 41.2356 28.3333 42.363 28.3333 43.7538C28.3333 45.1445 29.4636 46.272 30.8579 46.272Z" fill="black"/>
<path d="M34.1497 36.6938C35.32 36.6938 36.2686 35.7475 36.2686 34.5803C36.2686 33.413 35.32 32.4668 34.1497 32.4668C32.9794 32.4668 32.0308 33.413 32.0308 34.5803C32.0308 35.7475 32.9794 36.6938 34.1497 36.6938Z" fill="black"/>
<path d="M39.3785 34.1304C40.3745 34.1304 41.1819 33.3251 41.1819 32.3317C41.1819 31.3383 40.3745 30.533 39.3785 30.533C38.3826 30.533 37.5752 31.3383 37.5752 32.3317C37.5752 33.3251 38.3826 34.1304 39.3785 34.1304Z" fill="black"/>
<path d="M38.6122 29.3638C39.6082 29.3638 40.4155 28.5585 40.4155 27.5651C40.4155 26.5717 39.6082 25.7664 38.6122 25.7664C37.6162 25.7664 36.8088 26.5717 36.8088 27.5651C36.8088 28.5585 37.6162 29.3638 38.6122 29.3638Z" fill="black"/>
<path d="M43.3914 28.2847C44.2629 28.2847 44.9693 27.5801 44.9693 26.7108C44.9693 25.8416 44.2629 25.137 43.3914 25.137C42.5199 25.137 41.8135 25.8416 41.8135 26.7108C41.8135 27.5801 42.5199 28.2847 43.3914 28.2847Z" fill="black"/>
<path d="M47.4936 28.2847C48.2406 28.2847 48.8461 27.6807 48.8461 26.9357C48.8461 26.1907 48.2406 25.5867 47.4936 25.5867C46.7467 25.5867 46.1411 26.1907 46.1411 26.9357C46.1411 27.6807 46.7467 28.2847 47.4936 28.2847Z" fill="black"/>
<path d="M48.2602 33.0508C49.0072 33.0508 49.6128 32.4469 49.6128 31.7018C49.6128 30.9568 49.0072 30.3528 48.2602 30.3528C47.5133 30.3528 46.9077 30.9568 46.9077 31.7018C46.9077 32.4469 47.5133 33.0508 48.2602 33.0508Z" fill="black"/>
<path d="M44.158 33.0965C45.0295 33.0965 45.7359 32.3918 45.7359 31.5226C45.7359 30.6534 45.0295 29.9487 44.158 29.9487C43.2865 29.9487 42.5801 30.6534 42.5801 31.5226C42.5801 32.3918 43.2865 33.0965 44.158 33.0965Z" fill="black"/>
<path d="M39.6943 45.0576C40.1425 45.0576 40.5058 44.6952 40.5058 44.2481C40.5058 43.8011 40.1425 43.4387 39.6943 43.4387C39.2461 43.4387 38.8828 43.8011 38.8828 44.2481C38.8828 44.6952 39.2461 45.0576 39.6943 45.0576Z" fill="black"/>
<path d="M42.9406 44.6531C43.4884 44.6531 43.9324 44.2102 43.9324 43.6638C43.9324 43.1175 43.4884 42.6746 42.9406 42.6746C42.3928 42.6746 41.9487 43.1175 41.9487 43.6638C41.9487 44.2102 42.3928 44.6531 42.9406 44.6531Z" fill="black"/>
<path d="M46.5019 43.3045C47.1243 43.3045 47.6289 42.8012 47.6289 42.1803C47.6289 41.5595 47.1243 41.0562 46.5019 41.0562C45.8794 41.0562 45.3748 41.5595 45.3748 42.1803C45.3748 42.8012 45.8794 43.3045 46.5019 43.3045Z" fill="black"/>
<path d="M47.3584 46.9014C48.1053 46.9014 48.7109 46.2975 48.7109 45.5524C48.7109 44.8074 48.1053 44.2034 47.3584 44.2034C46.6114 44.2034 46.0059 44.8074 46.0059 45.5524C46.0059 46.2975 46.6114 46.9014 47.3584 46.9014Z" fill="black"/>
<path d="M43.0309 47.7555C43.6534 47.7555 44.158 47.2521 44.158 46.6313C44.158 46.0104 43.6534 45.5071 43.0309 45.5071C42.4084 45.5071 41.9038 46.0104 41.9038 46.6313C41.9038 47.2521 42.4084 47.7555 43.0309 47.7555Z" fill="black"/>
<path d="M39.1981 47.7105C39.7459 47.7105 40.19 47.2676 40.19 46.7212C40.19 46.1749 39.7459 45.7319 39.1981 45.7319C38.6504 45.7319 38.2063 46.1749 38.2063 46.7212C38.2063 47.2676 38.6504 47.7105 39.1981 47.7105Z" fill="black"/>
<path d="M39.2433 50.8136C39.8658 50.8136 40.3704 50.3103 40.3704 49.6894C40.3704 49.0685 39.8658 48.5652 39.2433 48.5652C38.6208 48.5652 38.1162 49.0685 38.1162 49.6894C38.1162 50.3103 38.6208 50.8136 39.2433 50.8136Z" fill="black"/>
<path d="M43.842 51.398C44.589 51.398 45.1945 50.794 45.1945 50.049C45.1945 49.3039 44.589 48.7 43.842 48.7C43.095 48.7 42.4895 49.3039 42.4895 50.049C42.4895 50.794 43.095 51.398 43.842 51.398Z" fill="black"/>
<path d="M49.2073 50.8135C50.0788 50.8135 50.7853 50.1089 50.7853 49.2396C50.7853 48.3704 50.0788 47.6658 49.2073 47.6658C48.3359 47.6658 47.6294 48.3704 47.6294 49.2396C47.6294 50.1089 48.3359 50.8135 49.2073 50.8135Z" fill="black"/>
<path d="M52.3627 54.7254C53.3586 54.7254 54.166 53.92 54.166 52.9266C54.166 51.9332 53.3586 51.1279 52.3627 51.1279C51.3667 51.1279 50.5593 51.9332 50.5593 52.9266C50.5593 53.92 51.3667 54.7254 52.3627 54.7254Z" fill="black"/>
<path d="M45.7356 55.2654C46.6071 55.2654 47.3136 54.5608 47.3136 53.6915C47.3136 52.8223 46.6071 52.1177 45.7356 52.1177C44.8642 52.1177 44.1577 52.8223 44.1577 53.6915C44.1577 54.5608 44.8642 55.2654 45.7356 55.2654Z" fill="black"/>
<path d="M41.9935 58.3228C42.8649 58.3228 43.5714 57.6181 43.5714 56.7489C43.5714 55.8797 42.8649 55.175 41.9935 55.175C41.122 55.175 40.4155 55.8797 40.4155 56.7489C40.4155 57.6181 41.122 58.3228 41.9935 58.3228Z" fill="black"/>
<path d="M45.1041 62.2803C46.1001 62.2803 46.9075 61.475 46.9075 60.4816C46.9075 59.4882 46.1001 58.6829 45.1041 58.6829C44.1082 58.6829 43.3008 59.4882 43.3008 60.4816C43.3008 61.475 44.1082 62.2803 45.1041 62.2803Z" fill="black"/>
<path d="M53.3999 63.0002C54.5702 63.0002 55.5189 62.0539 55.5189 60.8867C55.5189 59.7194 54.5702 58.7732 53.3999 58.7732C52.2297 58.7732 51.281 59.7194 51.281 60.8867C51.281 62.0539 52.2297 63.0002 53.3999 63.0002Z" fill="black"/>
<path d="M48.8463 59.2224C49.8423 59.2224 50.6497 58.4171 50.6497 57.4237C50.6497 56.4303 49.8423 55.625 48.8463 55.625C47.8504 55.625 47.043 56.4303 47.043 57.4237C47.043 58.4171 47.8504 59.2224 48.8463 59.2224Z" fill="black"/>
<path d="M56.8714 58.5033C58.0416 58.5033 58.9903 57.5571 58.9903 56.3898C58.9903 55.2226 58.0416 54.2764 56.8714 54.2764C55.7011 54.2764 54.7524 55.2226 54.7524 56.3898C54.7524 57.5571 55.7011 58.5033 56.8714 58.5033Z" fill="black"/>
<path d="M40.0998 54.4561C40.8468 54.4561 41.4523 53.8521 41.4523 53.1071C41.4523 52.362 40.8468 51.7581 40.0998 51.7581C39.3529 51.7581 38.7473 52.362 38.7473 53.1071C38.7473 53.8521 39.3529 54.4561 40.0998 54.4561Z" fill="black"/>
<path d="M93.2621 28.4971H90.1667V55.6381H93.2621V28.4971Z" fill="black"/>
<path d="M103.226 42.0458C103.226 34.4408 109.599 28 117.094 28C124.633 28 130.915 34.3928 130.915 42.0458C130.915 49.6989 124.589 56.0917 117.094 56.0917C109.643 56.1353 103.226 49.6989 103.226 42.0458ZM127.819 42.0458C127.819 36.015 122.929 30.8824 117.094 30.8824C111.26 30.8824 106.326 36.015 106.326 42.0458C106.326 48.1247 111.26 53.2529 117.094 53.2529C122.929 53.2529 127.819 48.1247 127.819 42.0458Z" fill="black"/>
<path d="M146.8 31.4231H137.692V28.4971H158.964V31.4231H149.852V55.6381H146.757L146.8 31.4231Z" fill="black"/>
<path d="M175.206 32.2778L164.929 55.6381H161.564L172.828 30.0277C173.232 29.0814 174.176 28.4971 175.163 28.4971C176.193 28.4971 177.093 29.0814 177.497 30.0277L188.761 55.6381H185.396L175.206 32.2778Z" fill="black"/>
</g>
<defs>
<clipPath id="clip0_4753_16661">
<rect width="170.333" height="56" fill="white" transform="translate(22.5 14)"/>
</clipPath>
</defs>
</svg>
