<svg width="246" height="96" viewBox="0 0 246 96" fill="none" xmlns="http://www.w3.org/2000/svg">
<mask id="mask0_2_212" style="mask-type:luminance" maskUnits="userSpaceOnUse" x="26" y="16" width="195" height="64">
<path d="M220.667 16H26V80H220.667V16Z" fill="white"/>
</mask>
<g mask="url(#mask0_2_212)">
<path d="M69.0941 29.7559C70.6876 29.7559 71.9795 28.4674 71.9795 26.8779C71.9795 25.2885 70.6876 24 69.0941 24C67.5006 24 66.2087 25.2885 66.2087 26.8779C66.2087 28.4674 67.5006 29.7559 69.0941 29.7559Z" fill="#1D1D1D"/>
<path d="M72.3402 70.4067C73.9337 70.4067 75.2256 69.1182 75.2256 67.5288C75.2256 65.9394 73.9337 64.6509 72.3402 64.6509C70.7466 64.6509 69.4548 65.9394 69.4548 67.5288C69.4548 69.1182 70.7466 70.4067 72.3402 70.4067Z" fill="#1D1D1D"/>
<path d="M69.9187 36.9504C71.2562 36.9504 72.3404 35.869 72.3404 34.535C72.3404 33.201 71.2562 32.1196 69.9187 32.1196C68.5813 32.1196 67.4971 33.201 67.4971 34.535C67.4971 35.869 68.5813 36.9504 69.9187 36.9504Z" fill="#1D1D1D"/>
<path d="M76.3599 37.8757C77.6973 37.8757 78.7815 36.7943 78.7815 35.4603C78.7815 34.1263 77.6973 33.0449 76.3599 33.0449C75.0224 33.0449 73.9382 34.1263 73.9382 35.4603C73.9382 36.7943 75.0224 37.8757 76.3599 37.8757Z" fill="#1D1D1D"/>
<path d="M69.0944 43.0664C70.2327 43.0664 71.1554 42.1461 71.1554 41.0107C71.1554 39.8754 70.2327 38.9551 69.0944 38.9551C67.9562 38.9551 67.0334 39.8754 67.0334 41.0107C67.0334 42.1461 67.9562 43.0664 69.0944 43.0664Z" fill="#1D1D1D"/>
<path d="M75.5346 43.9399C76.6729 43.9399 77.5956 43.0196 77.5956 41.8843C77.5956 40.749 76.6729 39.8286 75.5346 39.8286C74.3964 39.8286 73.4736 40.749 73.4736 41.8843C73.4736 43.0196 74.3964 43.9399 75.5346 43.9399Z" fill="#1D1D1D"/>
<path d="M80.6872 45.9448C81.8254 45.9448 82.7482 45.0245 82.7482 43.8892C82.7482 42.7538 81.8254 41.8335 80.6872 41.8335C79.549 41.8335 78.6262 42.7538 78.6262 43.8892C78.6262 45.0245 79.549 45.9448 80.6872 45.9448Z" fill="#1D1D1D"/>
<path d="M73.6283 48.8733C74.6243 48.8733 75.4317 48.068 75.4317 47.0746C75.4317 46.0812 74.6243 45.2759 73.6283 45.2759C72.6323 45.2759 71.825 46.0812 71.825 47.0746C71.825 48.068 72.6323 48.8733 73.6283 48.8733Z" fill="#1D1D1D"/>
<path d="M67.1881 47.9998C68.1841 47.9998 68.9915 47.1944 68.9915 46.201C68.9915 45.2077 68.1841 44.4023 67.1881 44.4023C66.1922 44.4023 65.3848 45.2077 65.3848 46.201C65.3848 47.1944 66.1922 47.9998 67.1881 47.9998Z" fill="#1D1D1D"/>
<path d="M78.8319 50.8782C79.8279 50.8782 80.6353 50.0729 80.6353 49.0795C80.6353 48.0861 79.8279 47.2808 78.8319 47.2808C77.836 47.2808 77.0286 48.0861 77.0286 49.0795C77.0286 50.0729 77.836 50.8782 78.8319 50.8782Z" fill="#1D1D1D"/>
<path d="M71.0526 52.625C71.9062 52.625 72.5983 51.9347 72.5983 51.0833C72.5983 50.2318 71.9062 49.5415 71.0526 49.5415C70.1989 49.5415 69.5068 50.2318 69.5068 51.0833C69.5068 51.9347 70.1989 52.625 71.0526 52.625Z" fill="#1D1D1D"/>
<path d="M76.2564 54.5781C77.1101 54.5781 77.8021 53.8879 77.8021 53.0364C77.8021 52.1849 77.1101 51.4946 76.2564 51.4946C75.4027 51.4946 74.7107 52.1849 74.7107 53.0364C74.7107 53.8879 75.4027 54.5781 76.2564 54.5781Z" fill="#1D1D1D"/>
<path d="M64.6629 51.6992C65.5166 51.6992 66.2086 51.0089 66.2086 50.1575C66.2086 49.306 65.5166 48.6157 64.6629 48.6157C63.8092 48.6157 63.1172 49.306 63.1172 50.1575C63.1172 51.0089 63.8092 51.6992 64.6629 51.6992Z" fill="#1D1D1D"/>
<path d="M68.218 55.1438C68.9294 55.1438 69.5062 54.5686 69.5062 53.859C69.5062 53.1494 68.9294 52.5742 68.218 52.5742C67.5066 52.5742 66.9299 53.1494 66.9299 53.859C66.9299 54.5686 67.5066 55.1438 68.218 55.1438Z" fill="#1D1D1D"/>
<path d="M70.4336 58.6895C71.0596 58.6895 71.5671 58.1833 71.5671 57.5588C71.5671 56.9344 71.0596 56.4282 70.4336 56.4282C69.8075 56.4282 69.3 56.9344 69.3 57.5588C69.3 58.1833 69.8075 58.6895 70.4336 58.6895Z" fill="#1D1D1D"/>
<path d="M67.7028 59.4092C68.215 59.4092 68.6303 58.995 68.6303 58.4841C68.6303 57.9732 68.215 57.5591 67.7028 57.5591C67.1906 57.5591 66.7754 57.9732 66.7754 58.4841C66.7754 58.995 67.1906 59.4092 67.7028 59.4092Z" fill="#1D1D1D"/>
<path d="M65.2812 56.7363C65.9073 56.7363 66.4148 56.2301 66.4148 55.6057C66.4148 54.9813 65.9073 54.4751 65.2812 54.4751C64.6552 54.4751 64.1477 54.9813 64.1477 55.6057C64.1477 56.2301 64.6552 56.7363 65.2812 56.7363Z" fill="#1D1D1D"/>
<path d="M61.7781 54.2703C62.4895 54.2703 63.0662 53.695 63.0662 52.9855C63.0662 52.2759 62.4895 51.7007 61.7781 51.7007C61.0667 51.7007 60.49 52.2759 60.49 52.9855C60.49 53.695 61.0667 54.2703 61.7781 54.2703Z" fill="#1D1D1D"/>
<path d="M61.7263 44.6072C62.4377 44.6072 63.0144 44.032 63.0144 43.3224C63.0144 42.6128 62.4377 42.0376 61.7263 42.0376C61.0149 42.0376 60.4382 42.6128 60.4382 43.3224C60.4382 44.032 61.0149 44.6072 61.7263 44.6072Z" fill="#1D1D1D"/>
<path d="M62.293 40.0855C62.919 40.0855 63.4265 39.5793 63.4265 38.9548C63.4265 38.3304 62.919 37.8242 62.293 37.8242C61.6669 37.8242 61.1594 38.3304 61.1594 38.9548C61.1594 39.5793 61.6669 40.0855 62.293 40.0855Z" fill="#1D1D1D"/>
<path d="M63.5297 36.3853C64.042 36.3853 64.4572 35.9711 64.4572 35.4602C64.4572 34.9493 64.042 34.5352 63.5297 34.5352C63.0175 34.5352 62.6023 34.9493 62.6023 35.4602C62.6023 35.9711 63.0175 36.3853 63.5297 36.3853Z" fill="#1D1D1D"/>
<path d="M61.3657 34.6382C61.9917 34.6382 62.4993 34.132 62.4993 33.5076C62.4993 32.8831 61.9917 32.377 61.3657 32.377C60.7397 32.377 60.2322 32.8831 60.2322 33.5076C60.2322 34.132 60.7397 34.6382 61.3657 34.6382Z" fill="#1D1D1D"/>
<path d="M73.3709 57.0955C74.0823 57.0955 74.659 56.5202 74.659 55.8107C74.659 55.1011 74.0823 54.5259 73.3709 54.5259C72.6595 54.5259 72.0828 55.1011 72.0828 55.8107C72.0828 56.5202 72.6595 57.0955 73.3709 57.0955Z" fill="#1D1D1D"/>
<path d="M58.4287 33.1477C59.1401 33.1477 59.7169 32.5725 59.7169 31.8629C59.7169 31.1533 59.1401 30.5781 58.4287 30.5781C57.7173 30.5781 57.1406 31.1533 57.1406 31.8629C57.1406 32.5725 57.7173 33.1477 58.4287 33.1477Z" fill="#1D1D1D"/>
<path d="M59.3047 38.5955C60.0161 38.5955 60.5928 38.0202 60.5928 37.3107C60.5928 36.6011 60.0161 36.0259 59.3047 36.0259C58.5933 36.0259 58.0166 36.6011 58.0166 37.3107C58.0166 38.0202 58.5933 38.5955 59.3047 38.5955Z" fill="#1D1D1D"/>
<path d="M57.8624 43.7861C58.7161 43.7861 59.4081 43.0959 59.4081 42.2444C59.4081 41.3929 58.7161 40.7026 57.8624 40.7026C57.0087 40.7026 56.3167 41.3929 56.3167 42.2444C56.3167 43.0959 57.0087 43.7861 57.8624 43.7861Z" fill="#1D1D1D"/>
<path d="M53.1732 43.7854C54.1692 43.7854 54.9766 42.9801 54.9766 41.9867C54.9766 40.9933 54.1692 40.188 53.1732 40.188C52.1773 40.188 51.3699 40.9933 51.3699 41.9867C51.3699 42.9801 52.1773 43.7854 53.1732 43.7854Z" fill="#1D1D1D"/>
<path d="M47.7121 45.0195C48.8503 45.0195 49.7731 44.0992 49.7731 42.9639C49.7731 41.8286 48.8503 40.9082 47.7121 40.9082C46.5739 40.9082 45.6511 41.8286 45.6511 42.9639C45.6511 44.0992 46.5739 45.0195 47.7121 45.0195Z" fill="#1D1D1D"/>
<path d="M41.7351 47.9485C43.0726 47.9485 44.1568 46.8671 44.1568 45.5331C44.1568 44.1991 43.0726 43.1177 41.7351 43.1177C40.3977 43.1177 39.3135 44.1991 39.3135 45.5331C39.3135 46.8671 40.3977 47.9485 41.7351 47.9485Z" fill="#1D1D1D"/>
<path d="M35.5521 52.8823C37.1457 52.8823 38.4375 51.5938 38.4375 50.0044C38.4375 48.415 37.1457 47.1265 35.5521 47.1265C33.9586 47.1265 32.6667 48.415 32.6667 50.0044C32.6667 51.5938 33.9586 52.8823 35.5521 52.8823Z" fill="#1D1D1D"/>
<path d="M39.314 41.9358C40.6514 41.9358 41.7356 40.8544 41.7356 39.5204C41.7356 38.1864 40.6514 37.105 39.314 37.105C37.9765 37.105 36.8923 38.1864 36.8923 39.5204C36.8923 40.8544 37.9765 41.9358 39.314 41.9358Z" fill="#1D1D1D"/>
<path d="M45.2897 39.0063C46.428 39.0063 47.3507 38.086 47.3507 36.9507C47.3507 35.8154 46.428 34.895 45.2897 34.895C44.1515 34.895 43.2288 35.8154 43.2288 36.9507C43.2288 38.086 44.1515 39.0063 45.2897 39.0063Z" fill="#1D1D1D"/>
<path d="M44.4138 33.5586C45.552 33.5586 46.4747 32.6382 46.4747 31.5029C46.4747 30.3676 45.552 29.4473 44.4138 29.4473C43.2755 29.4473 42.3528 30.3676 42.3528 31.5029C42.3528 32.6382 43.2755 33.5586 44.4138 33.5586Z" fill="#1D1D1D"/>
<path d="M49.8759 32.3254C50.8718 32.3254 51.6792 31.5201 51.6792 30.5267C51.6792 29.5333 50.8718 28.728 49.8759 28.728C48.8799 28.728 48.0725 29.5333 48.0725 30.5267C48.0725 31.5201 48.8799 32.3254 49.8759 32.3254Z" fill="#1D1D1D"/>
<path d="M54.5643 32.3257C55.418 32.3257 56.11 31.6354 56.11 30.7839C56.11 29.9325 55.418 29.2422 54.5643 29.2422C53.7106 29.2422 53.0186 29.9325 53.0186 30.7839C53.0186 31.6354 53.7106 32.3257 54.5643 32.3257Z" fill="#1D1D1D"/>
<path d="M55.4403 37.7725C56.294 37.7725 56.986 37.0822 56.986 36.2307C56.986 35.3792 56.294 34.689 55.4403 34.689C54.5866 34.689 53.8945 35.3792 53.8945 36.2307C53.8945 37.0822 54.5866 37.7725 55.4403 37.7725Z" fill="#1D1D1D"/>
<path d="M50.7518 37.8245C51.7478 37.8245 52.5552 37.0192 52.5552 36.0258C52.5552 35.0324 51.7478 34.2271 50.7518 34.2271C49.7559 34.2271 48.9485 35.0324 48.9485 36.0258C48.9485 37.0192 49.7559 37.8245 50.7518 37.8245Z" fill="#1D1D1D"/>
<path d="M45.6508 51.4946C46.163 51.4946 46.5783 51.0805 46.5783 50.5696C46.5783 50.0587 46.163 49.6445 45.6508 49.6445C45.1386 49.6445 44.7234 50.0587 44.7234 50.5696C44.7234 51.0805 45.1386 51.4946 45.6508 51.4946Z" fill="#1D1D1D"/>
<path d="M49.3608 51.0322C49.9869 51.0322 50.4944 50.526 50.4944 49.9016C50.4944 49.2772 49.9869 48.771 49.3608 48.771C48.7348 48.771 48.2273 49.2772 48.2273 49.9016C48.2273 50.526 48.7348 51.0322 49.3608 51.0322Z" fill="#1D1D1D"/>
<path d="M53.4307 49.491C54.1421 49.491 54.7188 48.9157 54.7188 48.2062C54.7188 47.4966 54.1421 46.9214 53.4307 46.9214C52.7193 46.9214 52.1426 47.4966 52.1426 48.2062C52.1426 48.9157 52.7193 49.491 53.4307 49.491Z" fill="#1D1D1D"/>
<path d="M54.4097 53.6016C55.2634 53.6016 55.9555 52.9113 55.9555 52.0598C55.9555 51.2083 55.2634 50.5181 54.4097 50.5181C53.5561 50.5181 52.864 51.2083 52.864 52.0598C52.864 52.9113 53.5561 53.6016 54.4097 53.6016Z" fill="#1D1D1D"/>
<path d="M49.4639 54.5774C50.1753 54.5774 50.752 54.0022 50.752 53.2926C50.752 52.583 50.1753 52.0078 49.4639 52.0078C48.7525 52.0078 48.1758 52.583 48.1758 53.2926C48.1758 54.0022 48.7525 54.5774 49.4639 54.5774Z" fill="#1D1D1D"/>
<path d="M45.0837 54.5264C45.7098 54.5264 46.2173 54.0202 46.2173 53.3958C46.2173 52.7713 45.7098 52.2651 45.0837 52.2651C44.4577 52.2651 43.9502 52.7713 43.9502 53.3958C43.9502 54.0202 44.4577 54.5264 45.0837 54.5264Z" fill="#1D1D1D"/>
<path d="M45.135 58.073C45.8464 58.073 46.4231 57.4978 46.4231 56.7882C46.4231 56.0786 45.8464 55.5034 45.135 55.5034C44.4236 55.5034 43.8469 56.0786 43.8469 56.7882C43.8469 57.4978 44.4236 58.073 45.135 58.073Z" fill="#1D1D1D"/>
<path d="M50.3907 58.7402C51.2444 58.7402 51.9364 58.05 51.9364 57.1985C51.9364 56.347 51.2444 55.6567 50.3907 55.6567C49.537 55.6567 48.845 56.347 48.845 57.1985C48.845 58.05 49.537 58.7402 50.3907 58.7402Z" fill="#1D1D1D"/>
<path d="M56.5228 58.0725C57.5188 58.0725 58.3262 57.2672 58.3262 56.2738C58.3262 55.2804 57.5188 54.4751 56.5228 54.4751C55.5269 54.4751 54.7195 55.2804 54.7195 56.2738C54.7195 57.2672 55.5269 58.0725 56.5228 58.0725Z" fill="#1D1D1D"/>
<path d="M60.1286 62.5435C61.2668 62.5435 62.1896 61.6231 62.1896 60.4878C62.1896 59.3525 61.2668 58.4321 60.1286 58.4321C58.9904 58.4321 58.0676 59.3525 58.0676 60.4878C58.0676 61.6231 58.9904 62.5435 60.1286 62.5435Z" fill="#1D1D1D"/>
<path d="M52.5551 63.1604C53.551 63.1604 54.3584 62.3551 54.3584 61.3617C54.3584 60.3683 53.551 59.563 52.5551 59.563C51.5591 59.563 50.7517 60.3683 50.7517 61.3617C50.7517 62.3551 51.5591 63.1604 52.5551 63.1604Z" fill="#1D1D1D"/>
<path d="M48.2782 66.6545C49.2742 66.6545 50.0816 65.8492 50.0816 64.8558C50.0816 63.8624 49.2742 63.0571 48.2782 63.0571C47.2822 63.0571 46.4749 63.8624 46.4749 64.8558C46.4749 65.8492 47.2822 66.6545 48.2782 66.6545Z" fill="#1D1D1D"/>
<path d="M51.8334 71.1777C52.9717 71.1777 53.8944 70.2574 53.8944 69.1221C53.8944 67.9868 52.9717 67.0664 51.8334 67.0664C50.6952 67.0664 49.7725 67.9868 49.7725 69.1221C49.7725 70.2574 50.6952 71.1777 51.8334 71.1777Z" fill="#1D1D1D"/>
<path d="M61.3142 72.0002C62.6517 72.0002 63.7359 70.9188 63.7359 69.5848C63.7359 68.2508 62.6517 67.1694 61.3142 67.1694C59.9768 67.1694 58.8926 68.2508 58.8926 69.5848C58.8926 70.9188 59.9768 72.0002 61.3142 72.0002Z" fill="#1D1D1D"/>
<path d="M56.11 67.6821C57.2483 67.6821 58.171 66.7618 58.171 65.6265C58.171 64.4912 57.2483 63.5708 56.11 63.5708C54.9718 63.5708 54.0491 64.4912 54.0491 65.6265C54.0491 66.7618 54.9718 67.6821 56.11 67.6821Z" fill="#1D1D1D"/>
<path d="M65.2817 66.8606C66.6192 66.8606 67.7034 65.7792 67.7034 64.4452C67.7034 63.1112 66.6192 62.0298 65.2817 62.0298C63.9443 62.0298 62.8601 63.1112 62.8601 64.4452C62.8601 65.7792 63.9443 66.8606 65.2817 66.8606Z" fill="#1D1D1D"/>
<path d="M46.1141 62.2358C46.9678 62.2358 47.6598 61.5456 47.6598 60.6941C47.6598 59.8426 46.9678 59.1523 46.1141 59.1523C45.2604 59.1523 44.5684 59.8426 44.5684 60.6941C44.5684 61.5456 45.2604 62.2358 46.1141 62.2358Z" fill="#1D1D1D"/>
<path d="M106.871 32.5684H103.333V63.5867H106.871V32.5684Z" fill="#1D1D1D"/>
<path d="M118.259 48.0524C118.259 39.3609 125.542 32 134.108 32C142.723 32 149.903 39.3061 149.903 48.0524C149.903 56.7987 142.674 64.1048 134.108 64.1048C125.592 64.1546 118.259 56.7987 118.259 48.0524ZM146.365 48.0524C146.365 41.16 140.776 35.2942 134.108 35.2942C127.44 35.2942 121.801 41.16 121.801 48.0524C121.801 54.9996 127.44 60.8604 134.108 60.8604C140.776 60.8604 146.365 54.9996 146.365 48.0524Z" fill="#1D1D1D"/>
<path d="M168.057 35.9124H157.648V32.5684H181.959V35.9124H171.545V63.5867H168.008L168.057 35.9124Z" fill="#1D1D1D"/>
<path d="M200.521 36.8892L188.776 63.5867H184.93L197.804 34.3176C198.266 33.2362 199.344 32.5684 200.472 32.5684C201.649 32.5684 202.678 33.2362 203.14 34.3176L216.013 63.5867H212.168L200.521 36.8892Z" fill="#1D1D1D"/>
</g>
</svg>
