<svg width="70" height="70" viewBox="0 0 70 70" fill="none" xmlns="http://www.w3.org/2000/svg">
<g clip-path="url(#clip0_1_67)">
<path d="M70 0H0V70H70V0Z" fill="white"/>
<g clip-path="url(#clip1_1_67)">
<mask id="mask0_1_67" style="mask-type:luminance" maskUnits="userSpaceOnUse" x="3" y="5" width="64" height="59">
<path d="M67 5H3V64H67V5Z" fill="white"/>
</mask>
<g mask="url(#mask0_1_67)">
<path d="M49.5095 12.1319C51.544 12.1319 53.1934 10.5521 53.1934 8.60342C53.1934 6.6547 51.544 5.07495 49.5095 5.07495C47.4749 5.07495 45.8256 6.6547 45.8256 8.60342C45.8256 10.5521 47.4749 12.1319 49.5095 12.1319Z" fill="#25395F"/>
<path d="M53.6505 61.9729C55.6848 61.9729 57.3345 60.3927 57.3345 58.4442C57.3345 56.4952 55.6848 54.9155 53.6505 54.9155C51.6159 54.9155 49.9666 56.4952 49.9666 58.4442C49.9666 60.3927 51.6159 61.9729 53.6505 61.9729Z" fill="#25395F"/>
<path d="M50.561 20.9525C52.2685 20.9525 53.6528 19.6266 53.6528 17.9911C53.6528 16.3555 52.2685 15.0297 50.561 15.0297C48.8534 15.0297 47.4691 16.3555 47.4691 17.9911C47.4691 19.6266 48.8534 20.9525 50.561 20.9525Z" fill="#25395F"/>
<path d="M58.7829 22.0861C60.491 22.0861 61.8749 20.7603 61.8749 19.1247C61.8749 17.4892 60.491 16.1633 58.7829 16.1633C57.0754 16.1633 55.6915 17.4892 55.6915 19.1247C55.6915 20.7603 57.0754 22.0861 58.7829 22.0861Z" fill="#25395F"/>
<path d="M49.5074 28.4518C50.9606 28.4518 52.1387 27.3234 52.1387 25.9315C52.1387 24.5395 50.9606 23.4111 49.5074 23.4111C48.0541 23.4111 46.876 24.5395 46.876 25.9315C46.876 27.3234 48.0541 28.4518 49.5074 28.4518Z" fill="#25395F"/>
<path d="M57.7297 29.523C59.1828 29.523 60.3609 28.3946 60.3609 27.0026C60.3609 25.6107 59.1828 24.4823 57.7297 24.4823C56.2762 24.4823 55.0981 25.6107 55.0981 27.0026C55.0981 28.3946 56.2762 29.523 57.7297 29.523Z" fill="#25395F"/>
<path d="M64.3084 31.9794C65.7615 31.9794 66.9396 30.851 66.9396 29.4591C66.9396 28.0671 65.7615 26.9387 64.3084 26.9387C62.8548 26.9387 61.6767 28.0671 61.6767 29.4591C61.6767 30.851 62.8548 31.9794 64.3084 31.9794Z" fill="#25395F"/>
<path d="M55.2998 35.5712C56.5716 35.5712 57.6023 34.5839 57.6023 33.366C57.6023 32.148 56.5716 31.1606 55.2998 31.1606C54.0282 31.1606 52.9974 32.148 52.9974 33.366C52.9974 34.5839 54.0282 35.5712 55.2998 35.5712Z" fill="#25395F"/>
<path d="M47.0777 34.4999C48.3493 34.4999 49.3801 33.5126 49.3801 32.2946C49.3801 31.0767 48.3493 30.0894 47.0777 30.0894C45.8061 30.0894 44.7753 31.0767 44.7753 32.2946C44.7753 33.5126 45.8061 34.4999 47.0777 34.4999Z" fill="#25395F"/>
<path d="M61.9445 38.0272C63.2158 38.0272 64.247 37.0399 64.247 35.8219C64.247 34.6039 63.2158 33.6166 61.9445 33.6166C60.6727 33.6166 59.6421 34.6039 59.6421 35.8219C59.6421 37.0399 60.6727 38.0272 61.9445 38.0272Z" fill="#25395F"/>
<path d="M52.0107 40.1694C53.1007 40.1694 53.9842 39.3231 53.9842 38.2792C53.9842 37.2352 53.1007 36.3889 52.0107 36.3889C50.9208 36.3889 50.0372 37.2352 50.0372 38.2792C50.0372 39.3231 50.9208 40.1694 52.0107 40.1694Z" fill="#25395F"/>
<path d="M58.6554 42.5648C59.7455 42.5648 60.6287 41.7185 60.6287 40.6746C60.6287 39.6306 59.7455 38.7843 58.6554 38.7843C57.5654 38.7843 56.6817 39.6306 56.6817 40.6746C56.6817 41.7185 57.5654 42.5648 58.6554 42.5648Z" fill="#25395F"/>
<path d="M43.8538 39.0352C44.9437 39.0352 45.8273 38.1889 45.8273 37.145C45.8273 36.101 44.9437 35.2548 43.8538 35.2548C42.7639 35.2548 41.8802 36.101 41.8802 37.145C41.8802 38.1889 42.7639 39.0352 43.8538 39.0352Z" fill="#25395F"/>
<path d="M48.3894 43.257C49.2977 43.257 50.034 42.5518 50.034 41.6818C50.034 40.8118 49.2977 40.1066 48.3894 40.1066C47.4811 40.1066 46.7448 40.8118 46.7448 41.6818C46.7448 42.5518 47.4811 43.257 48.3894 43.257Z" fill="#25395F"/>
<path d="M51.2182 47.6055C52.0175 47.6055 52.6654 46.9849 52.6654 46.2193C52.6654 45.4538 52.0175 44.8331 51.2182 44.8331C50.4189 44.8331 49.771 45.4538 49.771 46.2193C49.771 46.9849 50.4189 47.6055 51.2182 47.6055Z" fill="#25395F"/>
<path d="M47.7333 48.4886C48.3873 48.4886 48.9174 47.9808 48.9174 47.3545C48.9174 46.7281 48.3873 46.2203 47.7333 46.2203C47.0793 46.2203 46.5492 46.7281 46.5492 47.3545C46.5492 47.9808 47.0793 48.4886 47.7333 48.4886Z" fill="#25395F"/>
<path d="M44.6388 45.2119C45.4381 45.2119 46.086 44.5914 46.086 43.8258C46.086 43.0602 45.4381 42.4396 44.6388 42.4396C43.8395 42.4396 43.1915 43.0602 43.1915 43.8258C43.1915 44.5914 43.8395 45.2119 44.6388 45.2119Z" fill="#25395F"/>
<path d="M40.1673 42.1882C41.0756 42.1882 41.8119 41.483 41.8119 40.613C41.8119 39.7431 41.0756 39.0378 40.1673 39.0378C39.259 39.0378 38.5227 39.7431 38.5227 40.613C38.5227 41.483 39.259 42.1882 40.1673 42.1882Z" fill="#25395F"/>
<path d="M40.1021 30.3397C41.0104 30.3397 41.7467 29.6345 41.7467 28.7645C41.7467 27.8946 41.0104 27.1893 40.1021 27.1893C39.1938 27.1893 38.4575 27.8946 38.4575 28.7645C38.4575 29.6345 39.1938 30.3397 40.1021 30.3397Z" fill="#25395F"/>
<path d="M40.8247 24.7958C41.6239 24.7958 42.2719 24.1752 42.2719 23.4096C42.2719 22.6441 41.6239 22.0234 40.8247 22.0234C40.0254 22.0234 39.3774 22.6441 39.3774 23.4096C39.3774 24.1752 40.0254 24.7958 40.8247 24.7958Z" fill="#25395F"/>
<path d="M42.4061 20.2605C43.0601 20.2605 43.5902 19.7527 43.5902 19.1264C43.5902 18.5 43.0601 17.9922 42.4061 17.9922C41.7521 17.9922 41.222 18.5 41.222 19.1264C41.222 19.7527 41.7521 20.2605 42.4061 20.2605Z" fill="#25395F"/>
<path d="M39.6438 18.1181C40.4431 18.1181 41.0911 17.4974 41.0911 16.7319C41.0911 15.9663 40.4431 15.3457 39.6438 15.3457C38.8446 15.3457 38.1966 15.9663 38.1966 16.7319C38.1966 17.4974 38.8446 18.1181 39.6438 18.1181Z" fill="#25395F"/>
<path d="M54.969 45.653C55.8773 45.653 56.6136 44.9477 56.6136 44.0778C56.6136 43.2078 55.8773 42.5026 54.969 42.5026C54.0606 42.5026 53.3243 43.2078 53.3243 44.0778C53.3243 44.9477 54.0606 45.653 54.969 45.653Z" fill="#25395F"/>
<path d="M35.8905 16.2908C36.7988 16.2908 37.5351 15.5856 37.5351 14.7156C37.5351 13.8456 36.7988 13.1404 35.8905 13.1404C34.9822 13.1404 34.2459 13.8456 34.2459 14.7156C34.2459 15.5856 34.9822 16.2908 35.8905 16.2908Z" fill="#25395F"/>
<path d="M37.0114 22.9691C37.9197 22.9691 38.656 22.2638 38.656 21.3939C38.656 20.5238 37.9197 19.8186 37.0114 19.8186C36.1032 19.8186 35.3669 20.5238 35.3669 21.3939C35.3669 22.2638 36.1032 22.9691 37.0114 22.9691Z" fill="#25395F"/>
<path d="M35.169 29.334C36.2589 29.334 37.1425 28.4877 37.1425 27.4437C37.1425 26.3998 36.2589 25.5535 35.169 25.5535C34.0791 25.5535 33.1955 26.3998 33.1955 27.4437C33.1955 28.4877 34.0791 29.334 35.169 29.334Z" fill="#25395F"/>
<path d="M29.1801 29.3322C30.4518 29.3322 31.4826 28.3449 31.4826 27.1269C31.4826 25.9089 30.4518 24.9216 29.1801 24.9216C27.9085 24.9216 26.8777 25.9089 26.8777 27.1269C26.8777 28.3449 27.9085 29.3322 29.1801 29.3322Z" fill="#25395F"/>
<path d="M22.2069 30.8454C23.6601 30.8454 24.8382 29.7169 24.8382 28.325C24.8382 26.9331 23.6601 25.8047 22.2069 25.8047C20.7536 25.8047 19.5755 26.9331 19.5755 28.325C19.5755 29.7169 20.7536 30.8454 22.2069 30.8454Z" fill="#25395F"/>
<path d="M14.581 34.4364C16.2886 34.4364 17.6728 33.1105 17.6728 31.475C17.6728 29.8394 16.2886 28.5135 14.581 28.5135C12.8734 28.5135 11.4892 29.8394 11.4892 31.475C11.4892 33.1105 12.8734 34.4364 14.581 34.4364Z" fill="#25395F"/>
<path d="M6.6839 40.4858C8.71848 40.4858 10.3678 38.906 10.3678 36.9573C10.3678 35.0086 8.71848 33.4288 6.6839 33.4288C4.64934 33.4288 3 35.0086 3 36.9573C3 38.906 4.64934 40.4858 6.6839 40.4858Z" fill="#25395F"/>
<path d="M11.4842 27.0662C13.1918 27.0662 14.5761 25.7404 14.5761 24.1048C14.5761 22.4693 13.1918 21.1434 11.4842 21.1434C9.77667 21.1434 8.39243 22.4693 8.39243 24.1048C8.39243 25.7404 9.77667 27.0662 11.4842 27.0662Z" fill="#25395F"/>
<path d="M19.1155 23.4722C20.5688 23.4722 21.7468 22.3438 21.7468 20.9519C21.7468 19.5599 20.5688 18.4315 19.1155 18.4315C17.6622 18.4315 16.4841 19.5599 16.4841 20.9519C16.4841 22.3438 17.6622 23.4722 19.1155 23.4722Z" fill="#25395F"/>
<path d="M17.9999 16.7934C19.4531 16.7934 20.6312 15.665 20.6312 14.273C20.6312 12.8811 19.4531 11.7527 17.9999 11.7527C16.5466 11.7527 15.3685 12.8811 15.3685 14.273C15.3685 15.665 16.5466 16.7934 17.9999 16.7934Z" fill="#25395F"/>
<path d="M24.9739 15.2832C26.2455 15.2832 27.2763 14.2958 27.2763 13.0779C27.2763 11.8599 26.2455 10.8726 24.9739 10.8726C23.7023 10.8726 22.6715 11.8599 22.6715 13.0779C22.6715 14.2958 23.7023 15.2832 24.9739 15.2832Z" fill="#25395F"/>
<path d="M30.9574 15.2831C32.0473 15.2831 32.9309 14.4368 32.9309 13.3928C32.9309 12.3489 32.0473 11.5026 30.9574 11.5026C29.8674 11.5026 28.9839 12.3489 28.9839 13.3928C28.9839 14.4368 29.8674 15.2831 30.9574 15.2831Z" fill="#25395F"/>
<path d="M32.0784 21.9609C33.1683 21.9609 34.0519 21.1146 34.0519 20.0707C34.0519 19.0267 33.1683 18.1804 32.0784 18.1804C30.9884 18.1804 30.1049 19.0267 30.1049 20.0707C30.1049 21.1146 30.9884 21.9609 32.0784 21.9609Z" fill="#25395F"/>
<path d="M26.0896 22.024C27.3611 22.024 28.392 21.0366 28.392 19.8187C28.392 18.6008 27.3611 17.6134 26.0896 17.6134C24.818 17.6134 23.7871 18.6008 23.7871 19.8187C23.7871 21.0366 24.818 22.024 26.0896 22.024Z" fill="#25395F"/>
<path d="M19.5788 38.7849C20.2327 38.7849 20.7629 38.2771 20.7629 37.6507C20.7629 37.0243 20.2327 36.5166 19.5788 36.5166C18.9248 36.5166 18.3947 37.0243 18.3947 37.6507C18.3947 38.2771 18.9248 38.7849 19.5788 38.7849Z" fill="#25395F"/>
<path d="M24.3143 38.2183C25.1136 38.2183 25.7616 37.5977 25.7616 36.8321C25.7616 36.0666 25.1136 35.4459 24.3143 35.4459C23.5151 35.4459 22.8671 36.0666 22.8671 36.8321C22.8671 37.5977 23.5151 38.2183 24.3143 38.2183Z" fill="#25395F"/>
<path d="M29.5129 36.3281C30.4211 36.3281 31.1574 35.6228 31.1574 34.7529C31.1574 33.8829 30.4211 33.1776 29.5129 33.1776C28.6046 33.1776 27.8683 33.8829 27.8683 34.7529C27.8683 35.6228 28.6046 36.3281 29.5129 36.3281Z" fill="#25395F"/>
<path d="M30.7609 41.3683C31.8509 41.3683 32.7345 40.522 32.7345 39.478C32.7345 38.4341 31.8509 37.5878 30.7609 37.5878C29.671 37.5878 28.7874 38.4341 28.7874 39.478C28.7874 40.522 29.671 41.3683 30.7609 41.3683Z" fill="#25395F"/>
<path d="M24.4465 42.5648C25.3548 42.5648 26.0911 41.8595 26.0911 40.9895C26.0911 40.1196 25.3548 39.4143 24.4465 39.4143C23.5382 39.4143 22.8019 40.1196 22.8019 40.9895C22.8019 41.8595 23.5382 42.5648 24.4465 42.5648Z" fill="#25395F"/>
<path d="M18.8514 42.5031C19.6506 42.5031 20.2986 41.8824 20.2986 41.1169C20.2986 40.3513 19.6506 39.7307 18.8514 39.7307C18.0521 39.7307 17.4041 40.3513 17.4041 41.1169C17.4041 41.8824 18.0521 42.5031 18.8514 42.5031Z" fill="#25395F"/>
<path d="M18.9183 46.8499C19.8266 46.8499 20.5629 46.1447 20.5629 45.2747C20.5629 44.4047 19.8266 43.6995 18.9183 43.6995C18.01 43.6995 17.2737 44.4047 17.2737 45.2747C17.2737 46.1447 18.01 46.8499 18.9183 46.8499Z" fill="#25395F"/>
<path d="M25.6302 47.6678C26.7201 47.6678 27.6037 46.8215 27.6037 45.7776C27.6037 44.7336 26.7201 43.8873 25.6302 43.8873C24.5403 43.8873 23.6566 44.7336 23.6566 45.7776C23.6566 46.8215 24.5403 47.6678 25.6302 47.6678Z" fill="#25395F"/>
<path d="M33.4577 46.8502C34.7293 46.8502 35.7602 45.8629 35.7602 44.6449C35.7602 43.4269 34.7293 42.4396 33.4577 42.4396C32.1861 42.4396 31.1553 43.4269 31.1553 44.6449C31.1553 45.8629 32.1861 46.8502 33.4577 46.8502Z" fill="#25395F"/>
<path d="M38.0634 52.3298C39.5167 52.3298 40.6948 51.2014 40.6948 49.8094C40.6948 48.4175 39.5167 47.2891 38.0634 47.2891C36.6102 47.2891 35.4321 48.4175 35.4321 49.8094C35.4321 51.2014 36.6102 52.3298 38.0634 52.3298Z" fill="#25395F"/>
<path d="M28.3914 53.0874C29.663 53.0874 30.6938 52.1 30.6938 50.882C30.6938 49.6641 29.663 48.6768 28.3914 48.6768C27.1198 48.6768 26.089 49.6641 26.089 50.882C26.089 52.1 27.1198 53.0874 28.3914 53.0874Z" fill="#25395F"/>
<path d="M22.9329 57.3724C24.2045 57.3724 25.2354 56.3846 25.2354 55.1668C25.2354 53.9489 24.2045 52.9615 22.9329 52.9615C21.6613 52.9615 20.6305 53.9489 20.6305 55.1668C20.6305 56.3846 21.6613 57.3724 22.9329 57.3724Z" fill="#25395F"/>
<path d="M27.4688 62.9164C28.9221 62.9164 30.1002 61.788 30.1002 60.3961C30.1002 59.0042 28.9221 57.8759 27.4688 57.8759C26.0156 57.8759 24.8375 59.0042 24.8375 60.3961C24.8375 61.788 26.0156 62.9164 27.4688 62.9164Z" fill="#25395F"/>
<path d="M39.5743 63.9243C41.2819 63.9243 42.6662 62.5988 42.6662 60.963C42.6662 59.3272 41.2819 58.0017 39.5743 58.0017C37.8667 58.0017 36.4825 59.3272 36.4825 60.963C36.4825 62.5988 37.8667 63.9243 39.5743 63.9243Z" fill="#25395F"/>
<path d="M32.9319 58.6315C34.3852 58.6315 35.5633 57.5031 35.5633 56.1112C35.5633 54.7193 34.3852 53.5909 32.9319 53.5909C31.4786 53.5909 30.3006 54.7193 30.3006 56.1112C30.3006 57.5031 31.4786 58.6315 32.9319 58.6315Z" fill="#25395F"/>
<path d="M44.6399 57.6251C46.3475 57.6251 47.7317 56.2991 47.7317 54.6633C47.7317 53.028 46.3475 51.7021 44.6399 51.7021C42.9323 51.7021 41.5481 53.028 41.5481 54.6633C41.5481 56.2991 42.9323 57.6251 44.6399 57.6251Z" fill="#25395F"/>
<path d="M20.1664 51.9526C21.2563 51.9526 22.1399 51.1063 22.1399 50.0624C22.1399 49.0184 21.2563 48.1721 20.1664 48.1721C19.0764 48.1721 18.1929 49.0184 18.1929 50.0624C18.1929 51.1063 19.0764 51.9526 20.1664 51.9526Z" fill="#25395F"/>
</g>
</g>
</g>
<defs>
<clipPath id="clip0_1_67">
<rect width="70" height="70" fill="white"/>
</clipPath>
<clipPath id="clip1_1_67">
<rect width="64" height="59" fill="white" transform="translate(3 5)"/>
</clipPath>
</defs>
</svg>
