<svg width="25" height="24" viewBox="0 0 25 24" fill="none" xmlns="http://www.w3.org/2000/svg">
<g clip-path="url(#clip0_209_17534)">
<path d="M23.5417 0.727051L14.1602 7.79491L15.9047 3.62959L23.5417 0.727051Z" fill="#E17726" stroke="#E17726" stroke-width="0.25" stroke-linecap="round" stroke-linejoin="round"/>
<path d="M1.90234 0.727051L11.2003 7.86087L9.53932 3.62958L1.90234 0.727051Z" fill="#E27625" stroke="#E27625" stroke-width="0.25" stroke-linecap="round" stroke-linejoin="round"/>
<path d="M20.1641 17.1152L17.668 20.9979L23.0129 22.4963L24.544 17.2001L20.1641 17.1152Z" fill="#E27625" stroke="#E27625" stroke-width="0.25" stroke-linecap="round" stroke-linejoin="round"/>
<path d="M0.90918 17.2001L2.43099 22.4963L7.76667 20.9979L5.27977 17.1152L0.90918 17.2001Z" fill="#E27625" stroke="#E27625" stroke-width="0.25" stroke-linecap="round" stroke-linejoin="round"/>
<path d="M7.47882 10.5562L5.99414 12.8368L11.2834 13.0818L11.1071 7.28613L7.47882 10.5562Z" fill="#E27625" stroke="#E27625" stroke-width="0.25" stroke-linecap="round" stroke-linejoin="round"/>
<path d="M17.9647 10.5562L14.2808 7.22021L14.1602 13.0818L19.4494 12.8368L17.9647 10.5562Z" fill="#E27625" stroke="#E27625" stroke-width="0.25" stroke-linecap="round" stroke-linejoin="round"/>
<path d="M7.7666 20.9979L10.968 19.4241L8.21203 17.2378L7.7666 20.9979Z" fill="#E27625" stroke="#E27625" stroke-width="0.25" stroke-linecap="round" stroke-linejoin="round"/>
<path d="M14.4756 19.4241L17.6677 20.9979L17.2315 17.2378L14.4756 19.4241Z" fill="#E27625" stroke="#E27625" stroke-width="0.25" stroke-linecap="round" stroke-linejoin="round"/>
<path d="M17.6677 20.9981L14.4756 19.4243L14.7354 21.5352L14.7075 22.4305L17.6677 20.9981Z" fill="#D5BFB2" stroke="#D5BFB2" stroke-width="0.25" stroke-linecap="round" stroke-linejoin="round"/>
<path d="M7.7666 20.9981L10.736 22.4305L10.7175 21.5352L10.968 19.4243L7.7666 20.9981Z" fill="#D5BFB2" stroke="#D5BFB2" stroke-width="0.25" stroke-linecap="round" stroke-linejoin="round"/>
<path d="M10.7916 15.8433L8.1377 15.0517L10.0121 14.1753L10.7916 15.8433Z" fill="#233447" stroke="#233447" stroke-width="0.25" stroke-linecap="round" stroke-linejoin="round"/>
<path d="M14.6523 15.8433L15.4318 14.1753L17.3156 15.0517L14.6523 15.8433Z" fill="#233447" stroke="#233447" stroke-width="0.25" stroke-linecap="round" stroke-linejoin="round"/>
<path d="M7.76615 20.9979L8.23015 17.1152L5.2793 17.2001L7.76615 20.9979Z" fill="#CC6228" stroke="#CC6228" stroke-width="0.25" stroke-linecap="round" stroke-linejoin="round"/>
<path d="M17.2129 17.1152L17.6676 20.9979L20.1637 17.2001L17.2129 17.1152Z" fill="#CC6228" stroke="#CC6228" stroke-width="0.25" stroke-linecap="round" stroke-linejoin="round"/>
<path d="M19.4494 12.8369L14.1602 13.0819L14.6519 15.8432L15.4314 14.1751L17.3152 15.0515L19.4494 12.8369Z" fill="#CC6228" stroke="#CC6228" stroke-width="0.25" stroke-linecap="round" stroke-linejoin="round"/>
<path d="M8.13768 15.051L10.0121 14.1746L10.7916 15.8427L11.2834 13.0814L5.99414 12.8364L8.13768 15.051Z" fill="#CC6228" stroke="#CC6228" stroke-width="0.25" stroke-linecap="round" stroke-linejoin="round"/>
<path d="M5.99512 12.8364L8.21291 17.2374L8.13862 15.051L5.99512 12.8364Z" fill="#E27525" stroke="#E27525" stroke-width="0.25" stroke-linecap="round" stroke-linejoin="round"/>
<path d="M17.3149 15.051L17.2314 17.2374L19.4492 12.8364L17.3149 15.051Z" fill="#E27525" stroke="#E27525" stroke-width="0.25" stroke-linecap="round" stroke-linejoin="round"/>
<path d="M11.2838 13.082L10.792 15.8433L11.4137 19.1038L11.5529 14.8066L11.2838 13.082Z" fill="#E27525" stroke="#E27525" stroke-width="0.25" stroke-linecap="round" stroke-linejoin="round"/>
<path d="M14.1602 13.0815L13.9004 14.7967L14.0303 19.1034L14.652 15.8428L14.1602 13.0815Z" fill="#E27525" stroke="#E27525" stroke-width="0.25" stroke-linecap="round" stroke-linejoin="round"/>
<path d="M14.652 15.8429L14.0303 19.1035L14.4757 19.4239L17.2317 17.2376L17.3152 15.0513L14.652 15.8429Z" fill="#F5841F" stroke="#F5841F" stroke-width="0.25" stroke-linecap="round" stroke-linejoin="round"/>
<path d="M8.1377 15.0513L8.21198 17.2376L10.9679 19.4239L11.4133 19.1035L10.7916 15.8429L8.1377 15.0513Z" fill="#F5841F" stroke="#F5841F" stroke-width="0.25" stroke-linecap="round" stroke-linejoin="round"/>
<path d="M14.7076 22.4305L14.7354 21.5352L14.4942 21.3279H10.9495L10.7175 21.5352L10.736 22.4305L7.7666 20.998L8.80589 21.865L10.9123 23.3446H14.522L16.6377 21.865L17.6677 20.998L14.7076 22.4305Z" fill="#C0AC9D" stroke="#C0AC9D" stroke-width="0.25" stroke-linecap="round" stroke-linejoin="round"/>
<path d="M14.4759 19.4239L14.0305 19.1035H11.4137L10.9683 19.4239L10.7178 21.5349L10.9498 21.3275H14.4945L14.7358 21.5349L14.4759 19.4239Z" fill="#161616" stroke="#161616" stroke-width="0.25" stroke-linecap="round" stroke-linejoin="round"/>
<path d="M23.9405 8.25665L24.7293 4.35522L23.5415 0.727051L14.4756 7.55934L17.9646 10.5561L22.8919 12.0168L23.9777 10.7257L23.5044 10.377L24.256 9.67971L23.6807 9.22734L24.4324 8.64305L23.9405 8.25665Z" fill="#763E1A" stroke="#763E1A" stroke-width="0.25" stroke-linecap="round" stroke-linejoin="round"/>
<path d="M0.713867 4.35522L1.5119 8.25665L1.00153 8.64305L1.76244 9.22734L1.18712 9.67971L1.93875 10.377L1.4655 10.7257L2.55119 12.0168L7.47858 10.5561L10.9676 7.55934L1.90163 0.727051L0.713867 4.35522Z" fill="#763E1A" stroke="#763E1A" stroke-width="0.25" stroke-linecap="round" stroke-linejoin="round"/>
<path d="M22.8919 12.0173L17.9645 10.5566L19.4492 12.8372L17.2314 17.2381L20.1637 17.2004H24.5436L22.8919 12.0173Z" fill="#F5841F" stroke="#F5841F" stroke-width="0.25" stroke-linecap="round" stroke-linejoin="round"/>
<path d="M7.47896 10.5566L2.55163 12.0173L0.90918 17.2004H5.27977L8.21203 17.2381L5.99429 12.8372L7.47896 10.5566Z" fill="#F5841F" stroke="#F5841F" stroke-width="0.25" stroke-linecap="round" stroke-linejoin="round"/>
<path d="M14.1602 13.082L14.4757 7.55958L15.9047 3.62988H9.53906L10.9681 7.55958L11.2836 13.082L11.4042 14.8159L11.4135 19.1038H14.0303L14.0396 14.8159L14.1602 13.082Z" fill="#F5841F" stroke="#F5841F" stroke-width="0.25" stroke-linecap="round" stroke-linejoin="round"/>
</g>
<defs>
<clipPath id="clip0_209_17534">
<rect width="25" height="24" fill="white"/>
</clipPath>
</defs>
</svg>
