<svg width="245" height="65" viewBox="0 0 245 65" fill="none" xmlns="http://www.w3.org/2000/svg">
<path d="M47.5912 16.5469C40.3471 8.88539 28.4419 8.72025 21.0001 16.1782C13.5584 23.6361 13.3981 35.8929 20.6421 43.5544L25.4045 38.7818C20.7328 33.8108 20.8453 25.8818 25.663 21.0536C30.4806 16.2255 38.1825 16.3231 42.8834 21.2649L47.5912 16.5469Z" fill="#00E0CA"/>
<path d="M15.9555 48.2637C23.1995 55.9252 35.1046 56.0901 42.5463 48.6322C49.988 41.1743 50.1483 28.9176 42.9044 21.2561L38.1424 26.0284C42.8142 30.9994 42.7017 38.9285 37.884 43.7566C33.0663 48.5848 25.3645 48.4872 20.6636 43.5453L15.9555 48.2637Z" fill="#00E0CA"/>
<path d="M69.0757 39.3348L65.8435 42.4476C68.8395 45.1469 72.2119 46.4966 75.9606 46.4966C78.7204 46.4675 80.9859 45.8435 82.7569 44.6245C84.5427 43.4345 85.4504 41.7438 85.4799 39.5525C85.4799 37.6804 84.9855 36.1348 83.9967 34.9158C82.934 33.6677 81.2073 32.9566 78.8164 32.7825L75.0086 32.4995C73.887 32.3834 73.1048 32.1149 72.662 31.6941C72.175 31.3168 71.9462 30.8741 71.9757 30.3662C71.9757 29.568 72.2783 28.915 72.8834 28.4071C73.459 27.8991 74.4699 27.6452 75.9163 27.6452C77.1855 27.6452 78.3072 27.8266 79.2813 28.1894C80.2701 28.5957 81.2073 29.1109 82.0928 29.7349L84.9486 26.4479C83.8269 25.4901 82.5577 24.7282 81.1409 24.1622C80.4029 23.901 79.6133 23.6978 78.7721 23.5527C77.9308 23.4221 76.9789 23.3568 75.9163 23.3568C73.4664 23.3568 71.4444 23.9373 69.8505 25.0983C68.2123 26.2592 67.3784 28.0007 67.3489 30.3227C67.3784 32.2528 68.013 33.7548 69.2528 34.8287C70.463 35.9317 72.0348 36.5702 73.9681 36.7443L78.0415 37.0926C78.8975 37.1217 79.5838 37.3031 80.1004 37.6368C80.6022 37.9561 80.8531 38.5221 80.8531 39.3348C80.8531 40.249 80.4324 40.9601 79.5912 41.4681C78.75 41.976 77.6652 42.23 76.3369 42.23C73.3704 42.23 70.95 41.2649 69.0757 39.3348Z" fill="white"/>
<path d="M88.813 46.2353H93.4398V32.7825C93.4398 31.2007 93.8752 29.9961 94.746 29.1689C95.602 28.3272 96.6941 27.9064 98.0224 27.9064C99.3507 27.9064 100.435 28.3272 101.277 29.1689C102.133 29.9961 102.561 31.2007 102.561 32.7825V46.2353H107.188V31.2152C107.114 28.632 106.295 26.6728 104.73 25.3377C103.151 24.0171 101.41 23.3568 99.5056 23.3568C97.0409 23.3568 95.0485 24.2493 93.5284 26.0343H93.4398V14.4971H88.813V46.2353Z" fill="white"/>
<path d="M111.937 46.2353H116.564V23.6398H111.937V46.2353ZM111.937 19.0467H116.564V14.4971H111.937V19.0467Z" fill="white"/>
<path d="M121.602 46.2353H126.229V32.7825C126.229 31.2007 126.672 29.9961 127.557 29.1689C128.398 28.3272 129.483 27.9064 130.811 27.9064C132.14 27.9064 133.232 28.3272 134.088 29.1689C134.929 29.9961 135.35 31.2007 135.35 32.7825V46.2353H139.977V32.7825C139.977 31.2007 140.412 29.9961 141.283 29.1689C142.139 28.3272 143.231 27.9064 144.559 27.9064C145.887 27.9064 146.972 28.3272 147.813 29.1689C148.655 29.9961 149.075 31.2007 149.075 32.7825V46.2353H153.702V31.2152C153.643 28.632 152.831 26.6728 151.267 25.3377C149.688 24.0171 147.946 23.3568 146.042 23.3568C143.017 23.3278 140.604 24.3146 138.803 26.3173C138.006 25.4466 137.128 24.7282 136.169 24.1622C135.195 23.6543 133.911 23.3858 132.317 23.3568C129.837 23.3568 127.838 24.2493 126.317 26.0343H126.229V23.6398H121.602V46.2353Z" fill="white"/>
<path d="M158.895 46.2353H163.522V32.7825C163.522 31.2007 163.964 29.9961 164.85 29.1689C165.691 28.3272 166.776 27.9064 168.104 27.9064C169.432 27.9064 170.525 28.3272 171.381 29.1689C172.222 29.9961 172.642 31.2007 172.642 32.7825V46.2353H177.269V32.7825C177.269 31.2007 177.705 29.9961 178.575 29.1689C179.431 28.3272 180.524 27.9064 181.852 27.9064C183.18 27.9064 184.265 28.3272 185.106 29.1689C185.947 29.9961 186.368 31.2007 186.368 32.7825V46.2353H190.995V31.2152C190.936 28.632 190.124 26.6728 188.56 25.3377C186.981 24.0171 185.239 23.3568 183.335 23.3568C180.31 23.3278 177.897 24.3146 176.096 26.3173C175.299 25.4466 174.421 24.7282 173.462 24.1622C172.488 23.6543 171.203 23.3858 169.61 23.3568C167.13 23.3568 165.13 24.2493 163.61 26.0343H163.522V23.6398H158.895V46.2353Z" fill="white"/>
<path d="M213.743 36.6573V32.9131C213.713 29.9381 212.776 27.6016 210.931 25.9037C209.116 24.2348 206.895 23.3858 204.268 23.3568C203.176 23.3568 202.069 23.5527 200.947 23.9445C199.811 24.3364 198.785 24.9749 197.87 25.8602C196.97 26.7309 196.232 27.9209 195.656 29.4302C195.081 30.9104 194.793 32.768 194.793 35.0029C194.793 37.3248 195.125 39.2114 195.789 40.6626C196.394 42.1719 197.184 43.3474 198.158 44.1891C198.66 44.5955 199.198 44.9365 199.774 45.2122C200.32 45.5315 200.881 45.7855 201.456 45.9741C202.608 46.3224 203.788 46.4966 204.998 46.4966C208.172 46.5256 210.931 45.3066 213.278 42.8395L209.935 40.0314C208.459 41.4971 206.784 42.23 204.91 42.23C203.301 42.23 202.002 41.7511 201.014 40.7933C199.951 39.85 199.42 38.4713 199.42 36.6573H213.743ZM199.42 32.9131C199.508 31.1571 199.988 29.8293 200.859 28.9295C201.744 28.0733 202.881 27.6452 204.268 27.6452C205.655 27.6452 206.792 28.0733 207.677 28.9295C208.577 29.8293 209.057 31.1571 209.116 32.9131H199.42Z" fill="white"/>
<path d="M217.231 46.2353H221.858V32.6301C221.887 30.9757 222.374 29.7785 223.319 29.0383C224.16 28.2837 225.171 27.9064 226.352 27.9064C227.4 27.9064 228.411 28.2837 229.385 29.0383L232.75 25.0983C231.377 23.9663 229.768 23.3858 227.924 23.3568C225.459 23.3568 223.467 24.2493 221.946 26.0343H221.858V23.6398H217.231V46.2353Z" fill="white"/>
</svg>
