<svg width="246" height="96" viewBox="0 0 246 96" fill="none" xmlns="http://www.w3.org/2000/svg">
<path d="M48.5912 32.5469C41.3471 24.8854 29.4419 24.7202 22.0001 32.1782C14.5584 39.6361 14.3981 51.8929 21.6421 59.5544L26.4045 54.7818C21.7328 49.8108 21.8453 41.8818 26.663 37.0536C31.4806 32.2255 39.1825 32.3231 43.8834 37.2649L48.5912 32.5469Z" fill="#00E0CA"/>
<path d="M16.9555 64.2637C24.1995 71.9252 36.1046 72.0901 43.5463 64.6322C50.988 57.1743 51.1483 44.9176 43.9044 37.2561L39.1424 42.0284C43.8142 46.9994 43.7017 54.9285 38.884 59.7566C34.0663 64.5848 26.3645 64.4872 21.6636 59.5453L16.9555 64.2637Z" fill="#00E0CA"/>
<path d="M70.0757 55.3348L66.8435 58.4476C69.8395 61.1469 73.2119 62.4966 76.9606 62.4966C79.7204 62.4675 81.9859 61.8435 83.7569 60.6245C85.5427 59.4345 86.4504 57.7438 86.4799 55.5525C86.4799 53.6804 85.9855 52.1348 84.9967 50.9158C83.934 49.6677 82.2073 48.9566 79.8164 48.7825L76.0086 48.4995C74.887 48.3834 74.1048 48.1149 73.662 47.6941C73.175 47.3168 72.9462 46.8741 72.9757 46.3662C72.9757 45.568 73.2783 44.915 73.8834 44.4071C74.459 43.8991 75.4699 43.6452 76.9163 43.6452C78.1855 43.6452 79.3072 43.8266 80.2813 44.1894C81.2701 44.5957 82.2073 45.1109 83.0928 45.7349L85.9486 42.4479C84.8269 41.4901 83.5577 40.7282 82.1409 40.1622C81.4029 39.901 80.6133 39.6978 79.7721 39.5527C78.9308 39.4221 77.9789 39.3568 76.9163 39.3568C74.4664 39.3568 72.4444 39.9373 70.8505 41.0983C69.2123 42.2592 68.3784 44.0007 68.3489 46.3227C68.3784 48.2528 69.013 49.7548 70.2528 50.8287C71.463 51.9317 73.0348 52.5702 74.9681 52.7443L79.0415 53.0926C79.8975 53.1217 80.5838 53.3031 81.1004 53.6368C81.6022 53.9561 81.8531 54.5221 81.8531 55.3348C81.8531 56.249 81.4324 56.9601 80.5912 57.4681C79.75 57.976 78.6652 58.23 77.3369 58.23C74.3704 58.23 71.95 57.2649 70.0757 55.3348Z" fill="white"/>
<path d="M89.813 62.2353H94.4398V48.7825C94.4398 47.2007 94.8752 45.9961 95.746 45.1689C96.602 44.3272 97.6941 43.9064 99.0224 43.9064C100.351 43.9064 101.435 44.3272 102.277 45.1689C103.133 45.9961 103.561 47.2007 103.561 48.7825V62.2353H108.188V47.2152C108.114 44.632 107.295 42.6728 105.73 41.3377C104.151 40.0171 102.41 39.3568 100.506 39.3568C98.0409 39.3568 96.0485 40.2493 94.5284 42.0343H94.4398V30.4971H89.813V62.2353Z" fill="white"/>
<path d="M112.937 62.2353H117.564V39.6398H112.937V62.2353ZM112.937 35.0467H117.564V30.4971H112.937V35.0467Z" fill="white"/>
<path d="M122.602 62.2353H127.229V48.7825C127.229 47.2007 127.672 45.9961 128.557 45.1689C129.398 44.3272 130.483 43.9064 131.811 43.9064C133.14 43.9064 134.232 44.3272 135.088 45.1689C135.929 45.9961 136.35 47.2007 136.35 48.7825V62.2353H140.977V48.7825C140.977 47.2007 141.412 45.9961 142.283 45.1689C143.139 44.3272 144.231 43.9064 145.559 43.9064C146.887 43.9064 147.972 44.3272 148.813 45.1689C149.655 45.9961 150.075 47.2007 150.075 48.7825V62.2353H154.702V47.2152C154.643 44.632 153.831 42.6728 152.267 41.3377C150.688 40.0171 148.946 39.3568 147.042 39.3568C144.017 39.3278 141.604 40.3146 139.803 42.3173C139.006 41.4466 138.128 40.7282 137.169 40.1622C136.195 39.6543 134.911 39.3858 133.317 39.3568C130.837 39.3568 128.838 40.2493 127.317 42.0343H127.229V39.6398H122.602V62.2353Z" fill="white"/>
<path d="M159.895 62.2353H164.522V48.7825C164.522 47.2007 164.964 45.9961 165.85 45.1689C166.691 44.3272 167.776 43.9064 169.104 43.9064C170.432 43.9064 171.525 44.3272 172.381 45.1689C173.222 45.9961 173.642 47.2007 173.642 48.7825V62.2353H178.269V48.7825C178.269 47.2007 178.705 45.9961 179.575 45.1689C180.431 44.3272 181.524 43.9064 182.852 43.9064C184.18 43.9064 185.265 44.3272 186.106 45.1689C186.947 45.9961 187.368 47.2007 187.368 48.7825V62.2353H191.995V47.2152C191.936 44.632 191.124 42.6728 189.56 41.3377C187.981 40.0171 186.239 39.3568 184.335 39.3568C181.31 39.3278 178.897 40.3146 177.096 42.3173C176.299 41.4466 175.421 40.7282 174.462 40.1622C173.488 39.6543 172.203 39.3858 170.61 39.3568C168.13 39.3568 166.13 40.2493 164.61 42.0343H164.522V39.6398H159.895V62.2353Z" fill="white"/>
<path d="M214.743 52.6573V48.9131C214.713 45.9381 213.776 43.6016 211.931 41.9037C210.116 40.2348 207.895 39.3858 205.268 39.3568C204.176 39.3568 203.069 39.5527 201.947 39.9445C200.811 40.3364 199.785 40.9749 198.87 41.8602C197.97 42.7309 197.232 43.9209 196.656 45.4302C196.081 46.9104 195.793 48.768 195.793 51.0029C195.793 53.3248 196.125 55.2114 196.789 56.6626C197.394 58.1719 198.184 59.3474 199.158 60.1891C199.66 60.5955 200.198 60.9365 200.774 61.2122C201.32 61.5315 201.881 61.7855 202.456 61.9741C203.608 62.3224 204.788 62.4966 205.998 62.4966C209.172 62.5256 211.931 61.3066 214.278 58.8395L210.935 56.0314C209.459 57.4971 207.784 58.23 205.91 58.23C204.301 58.23 203.002 57.7511 202.014 56.7933C200.951 55.85 200.42 54.4713 200.42 52.6573H214.743ZM200.42 48.9131C200.508 47.1571 200.988 45.8293 201.859 44.9295C202.744 44.0733 203.881 43.6452 205.268 43.6452C206.655 43.6452 207.792 44.0733 208.677 44.9295C209.577 45.8293 210.057 47.1571 210.116 48.9131H200.42Z" fill="white"/>
<path d="M218.231 62.2353H222.858V48.6301C222.887 46.9757 223.374 45.7785 224.319 45.0383C225.16 44.2837 226.171 43.9064 227.352 43.9064C228.4 43.9064 229.411 44.2837 230.385 45.0383L233.75 41.0983C232.377 39.9663 230.768 39.3858 228.924 39.3568C226.459 39.3568 224.467 40.2493 222.946 42.0343H222.858V39.6398H218.231V62.2353Z" fill="white"/>
</svg>
