<svg width="398" height="56" viewBox="0 0 398 56" fill="none" xmlns="http://www.w3.org/2000/svg">
<path d="M215.261 13.6753H393.884C395.778 13.6753 397.314 15.2109 397.314 17.1051V44.1305C397.314 46.0247 395.778 47.5603 393.884 47.5603H215.261C213.367 47.5603 211.831 46.0247 211.831 44.1305V17.1051C211.831 15.2109 213.367 13.6753 215.261 13.6753Z" stroke="white" stroke-width="1.37192"/>
<path d="M41.4398 14.4593C35.1321 7.75549 24.7656 7.61099 18.2857 14.1367C11.8058 20.6624 11.6663 31.387 17.974 38.0908L22.1208 33.9149C18.0529 29.5653 18.1509 22.6274 22.3459 18.4027C26.5409 14.1781 33.2472 14.2635 37.3405 18.5876L41.4398 14.4593Z" fill="#00E0CA"/>
<path d="M13.8931 42.2116C20.2008 48.9153 30.5671 49.0596 37.047 42.534C43.5268 36.0083 43.6664 25.2837 37.3588 18.5799L33.2124 22.7556C37.2803 27.1053 37.1823 34.0432 32.9873 38.2678C28.7923 42.4925 22.086 42.407 17.9927 38.0829L13.8931 42.2116Z" fill="#00E0CA"/>
<path d="M60.1476 34.3983L57.3333 37.122C59.942 39.4839 62.8785 40.6648 66.1427 40.6648C68.5458 40.6394 70.5185 40.0934 72.0606 39.0268C73.6156 37.9855 74.4059 36.5062 74.4316 34.5887C74.4316 32.9507 74.0011 31.5983 73.1401 30.5317C72.2148 29.4396 70.7112 28.8174 68.6293 28.665L65.3138 28.4174C64.3371 28.3158 63.656 28.0809 63.2704 27.7127C62.8464 27.3825 62.6472 26.9952 62.6729 26.5508C62.6729 25.8524 62.9363 25.281 63.4632 24.8365C63.9644 24.3921 64.8447 24.1699 66.1041 24.1699C67.2093 24.1699 68.186 24.3286 69.0342 24.646C69.8952 25.0016 70.7112 25.4524 71.4823 25.9984L73.969 23.1223C72.9923 22.2842 71.8871 21.6175 70.6534 21.1223C70.0108 20.8937 69.3233 20.7159 68.5908 20.589C67.8583 20.4747 67.0294 20.4175 66.1041 20.4175C63.9708 20.4175 62.2102 20.9255 60.8223 21.9413C59.3958 22.9572 58.6698 24.481 58.6441 26.5127C58.6698 28.2015 59.2224 29.5158 60.3019 30.4555C61.3556 31.4205 62.7243 31.9793 64.4078 32.1316L67.9547 32.4364C68.7 32.4618 69.2976 32.6205 69.7474 32.9126C70.1843 33.1919 70.4028 33.6872 70.4028 34.3983C70.4028 35.1983 70.0365 35.8205 69.304 36.2649C68.5715 36.7093 67.627 36.9316 66.4704 36.9316C63.8873 36.9316 61.7797 36.0871 60.1476 34.3983Z" fill="white"/>
<path d="M77.3339 40.4363H81.3627V28.665C81.3627 27.2809 81.7418 26.227 82.5 25.5032C83.2454 24.7667 84.1964 24.3984 85.353 24.3984C86.5096 24.3984 87.4541 24.7667 88.1866 25.5032C88.932 26.227 89.3047 27.2809 89.3047 28.665V40.4363H93.3335V27.2936C93.2692 25.0333 92.556 23.3191 91.1938 22.1508C89.8187 20.9953 88.3023 20.4175 86.6445 20.4175C84.4984 20.4175 82.7635 21.1985 81.4398 22.7604H81.3627V12.6653H77.3339V40.4363Z" fill="white"/>
<path d="M97.4695 40.4363H101.498V20.6652H97.4695V40.4363ZM97.4695 16.6462H101.498V12.6653H97.4695V16.6462Z" fill="white"/>
<path d="M105.885 40.4363H109.914V28.665C109.914 27.2809 110.299 26.227 111.07 25.5032C111.803 24.7667 112.747 24.3984 113.904 24.3984C115.061 24.3984 116.012 24.7667 116.757 25.5032C117.489 26.227 117.856 27.2809 117.856 28.665V40.4363H121.884V28.665C121.884 27.2809 122.264 26.227 123.022 25.5032C123.767 24.7667 124.718 24.3984 125.875 24.3984C127.031 24.3984 127.976 24.7667 128.708 25.5032C129.441 26.227 129.807 27.2809 129.807 28.665V40.4363H133.836V27.2936C133.785 25.0333 133.078 23.3191 131.716 22.1508C130.34 20.9953 128.824 20.4175 127.166 20.4175C124.532 20.3921 122.431 21.2556 120.863 23.008C120.169 22.2461 119.404 21.6175 118.569 21.1223C117.721 20.6779 116.603 20.4429 115.215 20.4175C113.056 20.4175 111.314 21.1985 109.991 22.7604H109.914V20.6652H105.885V40.4363Z" fill="white"/>
<path d="M138.357 40.4363H142.386V28.665C142.386 27.2809 142.772 26.227 143.543 25.5032C144.275 24.7667 145.22 24.3984 146.377 24.3984C147.533 24.3984 148.484 24.7667 149.23 25.5032C149.962 26.227 150.328 27.2809 150.328 28.665V40.4363H154.357V28.665C154.357 27.2809 154.736 26.227 155.494 25.5032C156.24 24.7667 157.191 24.3984 158.347 24.3984C159.504 24.3984 160.448 24.7667 161.181 25.5032C161.914 26.227 162.28 27.2809 162.28 28.665V40.4363H166.309V27.2936C166.257 25.0333 165.55 23.3191 164.188 22.1508C162.813 20.9953 161.297 20.4175 159.639 20.4175C157.004 20.3921 154.903 21.2556 153.335 23.008C152.641 22.2461 151.877 21.6175 151.042 21.1223C150.193 20.6779 149.075 20.4429 147.687 20.4175C145.528 20.4175 143.787 21.1985 142.463 22.7604H142.386V20.6652H138.357V40.4363Z" fill="white"/>
<path d="M186.116 32.0555V28.7793C186.091 26.1762 185.275 24.1318 183.668 22.6461C182.088 21.1858 180.154 20.4429 177.866 20.4175C176.915 20.4175 175.951 20.589 174.975 20.9318C173.985 21.2747 173.092 21.8334 172.295 22.608C171.511 23.3699 170.869 24.4111 170.367 25.7317C169.866 27.027 169.616 28.6523 169.616 30.6079C169.616 32.6396 169.905 34.2903 170.483 35.5602C171.01 36.8808 171.698 37.9093 172.546 38.6458C172.983 39.0014 173.452 39.2998 173.953 39.541C174.428 39.8204 174.917 40.0426 175.418 40.2077C176.42 40.5125 177.448 40.6648 178.502 40.6648C181.265 40.6902 183.668 39.6236 185.712 37.4649L182.801 35.0078C181.516 36.2903 180.057 36.9316 178.425 36.9316C177.024 36.9316 175.893 36.5125 175.032 35.6744C174.107 34.8491 173.644 33.6427 173.644 32.0555H186.116ZM173.644 28.7793C173.722 27.2428 174.139 26.0809 174.897 25.2937C175.669 24.5445 176.658 24.1699 177.866 24.1699C179.074 24.1699 180.064 24.5445 180.835 25.2937C181.619 26.0809 182.036 27.2428 182.088 28.7793H173.644Z" fill="white"/>
<path d="M189.154 40.4363H193.182V28.5317C193.208 27.0841 193.632 26.0365 194.455 25.3889C195.187 24.7286 196.068 24.3984 197.096 24.3984C198.008 24.3984 198.888 24.7286 199.737 25.3889L202.667 21.9413C201.471 20.9509 200.071 20.4429 198.464 20.4175C196.318 20.4175 194.583 21.1985 193.26 22.7604H193.182V20.6652H189.154V40.4363Z" fill="white"/>
<path d="M237.701 29.9876C237.781 30.8048 237.811 31.7216 237.791 32.7381C237.791 32.9374 237.691 33.0371 237.492 33.0371H227.955C227.875 33.0371 227.835 33.0769 227.835 33.1566C227.835 33.8343 227.895 34.3525 228.015 34.7113C228.234 35.5085 228.672 36.1364 229.33 36.5948C230.008 37.0333 230.855 37.2525 231.871 37.2525C233.346 37.2525 234.482 36.6446 235.28 35.4288C235.379 35.2295 235.509 35.1996 235.668 35.3391L237.372 36.4752C237.512 36.5948 237.542 36.7243 237.462 36.8638C236.904 37.7607 236.107 38.4683 235.07 38.9865C234.054 39.5047 232.898 39.7638 231.602 39.7638C230.147 39.7638 228.922 39.4449 227.925 38.8071C226.928 38.1693 226.181 37.2625 225.683 36.0865C225.204 34.9106 224.965 33.4855 224.965 31.8113C224.965 30.3563 225.075 29.2501 225.294 28.4928C225.653 27.1175 226.37 26.0313 227.447 25.234C228.523 24.4368 229.828 24.0381 231.363 24.0381C233.376 24.0381 234.881 24.5464 235.878 25.5629C236.874 26.5594 237.482 28.0343 237.701 29.9876ZM231.363 26.5196C230.506 26.5196 229.799 26.7388 229.24 27.1773C228.682 27.5959 228.304 28.1639 228.104 28.8814C227.965 29.3199 227.875 29.878 227.835 30.5556C227.835 30.6354 227.875 30.6752 227.955 30.6752H234.801C234.881 30.6752 234.921 30.6354 234.921 30.5556C234.881 29.8979 234.821 29.4096 234.741 29.0907C234.542 28.3134 234.144 27.6955 233.546 27.2371C232.968 26.7588 232.24 26.5196 231.363 26.5196ZM245.491 39.4948C245.312 39.4948 245.192 39.415 245.132 39.2556L240.259 24.6062L240.229 24.4866C240.229 24.3471 240.319 24.2773 240.498 24.2773H243.01C243.189 24.2773 243.309 24.357 243.368 24.5165L246.657 35.3391C246.677 35.379 246.707 35.3989 246.747 35.3989C246.786 35.3989 246.816 35.379 246.836 35.3391L250.095 24.5165C250.155 24.357 250.274 24.2773 250.454 24.2773L252.965 24.3072C253.184 24.3072 253.264 24.4168 253.204 24.6361L248.361 39.2556C248.301 39.415 248.182 39.4948 248.002 39.4948H245.491ZM272.584 24.068C274.098 24.068 275.294 24.5265 276.171 25.4433C277.048 26.3402 277.487 27.5959 277.487 29.2103V39.1958C277.487 39.3951 277.387 39.4948 277.188 39.4948H274.946C274.746 39.4948 274.647 39.3951 274.647 39.1958V29.8082C274.647 28.8117 274.368 28.0244 273.809 27.4464C273.271 26.8484 272.544 26.5495 271.627 26.5495C270.71 26.5495 269.963 26.8385 269.385 27.4165C268.807 27.9945 268.518 28.7718 268.518 29.7484V39.1958C268.518 39.3951 268.418 39.4948 268.219 39.4948H265.977C265.777 39.4948 265.678 39.3951 265.678 39.1958V29.8082C265.678 28.8117 265.399 28.0244 264.84 27.4464C264.302 26.8484 263.575 26.5495 262.658 26.5495C261.741 26.5495 261.004 26.8385 260.446 27.4165C259.907 27.9945 259.638 28.7718 259.638 29.7484V39.1958C259.638 39.3951 259.539 39.4948 259.339 39.4948H257.067C256.868 39.4948 256.768 39.3951 256.768 39.1958V24.5763C256.768 24.377 256.868 24.2773 257.067 24.2773H259.339C259.539 24.2773 259.638 24.377 259.638 24.5763V25.5928C259.638 25.6326 259.648 25.6625 259.668 25.6825C259.708 25.7024 259.748 25.6924 259.788 25.6526C260.665 24.5962 261.94 24.068 263.615 24.068C264.631 24.068 265.498 24.2674 266.216 24.666C266.933 25.0447 267.491 25.6127 267.89 26.3701C267.95 26.4498 268.009 26.4498 268.069 26.3701C268.548 25.5928 269.175 25.0148 269.953 24.6361C270.75 24.2574 271.627 24.068 272.584 24.068ZM296.153 26.3402C296.153 26.5395 296.054 26.6392 295.854 26.6392H292.625C292.546 26.6392 292.506 26.679 292.506 26.7588V34.6814C292.506 35.5185 292.695 36.1264 293.074 36.5051C293.453 36.8638 294.041 37.0432 294.838 37.0432H295.705C295.904 37.0432 296.004 37.1429 296.004 37.3422V39.1958C296.004 39.3951 295.904 39.4948 295.705 39.4948C295.067 39.5346 294.609 39.5545 294.33 39.5545C292.815 39.5545 291.669 39.2855 290.891 38.7473C290.134 38.1893 289.755 37.1728 289.755 35.6979V26.7588C289.755 26.679 289.716 26.6392 289.636 26.6392H287.812C287.613 26.6392 287.513 26.5395 287.513 26.3402V24.5763C287.513 24.377 287.613 24.2773 287.812 24.2773H289.636C289.716 24.2773 289.755 24.2375 289.755 24.1577V20.6299C289.755 20.4306 289.855 20.331 290.054 20.331H292.207C292.406 20.331 292.506 20.4306 292.506 20.6299V24.1577C292.506 24.2375 292.546 24.2773 292.625 24.2773H295.854C296.054 24.2773 296.153 24.377 296.153 24.5763V26.3402ZM312.25 29.9876C312.33 30.8048 312.36 31.7216 312.34 32.7381C312.34 32.9374 312.24 33.0371 312.041 33.0371H302.504C302.424 33.0371 302.384 33.0769 302.384 33.1566C302.384 33.8343 302.444 34.3525 302.564 34.7113C302.783 35.5085 303.222 36.1364 303.879 36.5948C304.557 37.0333 305.404 37.2525 306.42 37.2525C307.895 37.2525 309.031 36.6446 309.829 35.4288C309.928 35.2295 310.058 35.1996 310.217 35.3391L311.921 36.4752C312.061 36.5948 312.091 36.7243 312.011 36.8638C311.453 37.7607 310.656 38.4683 309.619 38.9865C308.603 39.5047 307.447 39.7638 306.151 39.7638C304.696 39.7638 303.471 39.4449 302.474 38.8071C301.478 38.1693 300.73 37.2625 300.232 36.0865C299.753 34.9106 299.514 33.4855 299.514 31.8113C299.514 30.3563 299.624 29.2501 299.843 28.4928C300.202 27.1175 300.919 26.0313 301.996 25.234C303.072 24.4368 304.378 24.0381 305.912 24.0381C307.925 24.0381 309.43 24.5464 310.427 25.5629C311.423 26.5594 312.031 28.0343 312.25 29.9876ZM305.912 26.5196C305.055 26.5196 304.348 26.7388 303.79 27.1773C303.231 27.5959 302.853 28.1639 302.653 28.8814C302.514 29.3199 302.424 29.878 302.384 30.5556C302.384 30.6354 302.424 30.6752 302.504 30.6752H309.35C309.43 30.6752 309.47 30.6354 309.47 30.5556C309.43 29.8979 309.37 29.4096 309.291 29.0907C309.091 28.3134 308.693 27.6955 308.095 27.2371C307.517 26.7588 306.789 26.5196 305.912 26.5196ZM321.677 39.6741C320.481 39.6741 319.425 39.4948 318.508 39.136C317.611 38.7772 316.914 38.2889 316.416 37.6711C315.917 37.0333 315.668 36.3357 315.668 35.5783V35.2494C315.668 35.0501 315.768 34.9505 315.967 34.9505H318.12C318.319 34.9505 318.419 35.0501 318.419 35.2494V35.3989C318.419 35.957 318.718 36.4453 319.316 36.8638C319.933 37.2824 320.711 37.4917 321.647 37.4917C322.544 37.4917 323.272 37.3023 323.83 36.9236C324.388 36.525 324.667 36.0267 324.667 35.4288C324.667 34.8508 324.408 34.4223 323.89 34.1432C323.372 33.8443 322.534 33.5353 321.378 33.2164C320.242 32.8975 319.286 32.5786 318.508 32.2597C317.751 31.9209 317.103 31.4525 316.565 30.8546C316.047 30.2367 315.788 29.4495 315.788 28.4928C315.788 27.1574 316.306 26.101 317.342 25.3237C318.399 24.5265 319.794 24.1278 321.528 24.1278C322.684 24.1278 323.7 24.3172 324.577 24.6959C325.474 25.0546 326.162 25.5629 326.64 26.2206C327.119 26.8783 327.358 27.6158 327.358 28.433V28.5227C327.358 28.722 327.258 28.8216 327.059 28.8216H324.966C324.767 28.8216 324.667 28.722 324.667 28.5227V28.433C324.667 27.855 324.378 27.3766 323.8 26.9979C323.242 26.5993 322.475 26.4 321.498 26.4C320.621 26.4 319.903 26.5694 319.345 26.9082C318.807 27.2471 318.538 27.7055 318.538 28.2835C318.538 28.8615 318.797 29.3 319.316 29.5989C319.854 29.8979 320.711 30.2168 321.887 30.5556C323.043 30.8745 323.999 31.1934 324.757 31.5123C325.534 31.8113 326.192 32.2697 326.73 32.8876C327.268 33.4855 327.537 34.2728 327.537 35.2494C327.537 36.6047 326.999 37.681 325.923 38.4783C324.866 39.2755 323.451 39.6741 321.677 39.6741ZM338.967 26.3402C338.967 26.5395 338.868 26.6392 338.669 26.6392H335.44C335.36 26.6392 335.32 26.679 335.32 26.7588V34.6814C335.32 35.5185 335.509 36.1264 335.888 36.5051C336.267 36.8638 336.855 37.0432 337.652 37.0432H338.519C338.718 37.0432 338.818 37.1429 338.818 37.3422V39.1958C338.818 39.3951 338.718 39.4948 338.519 39.4948C337.881 39.5346 337.423 39.5545 337.144 39.5545C335.629 39.5545 334.483 39.2855 333.706 38.7473C332.948 38.1893 332.57 37.1728 332.57 35.6979V26.7588C332.57 26.679 332.53 26.6392 332.45 26.6392H330.626C330.427 26.6392 330.327 26.5395 330.327 26.3402V24.5763C330.327 24.377 330.427 24.2773 330.626 24.2773H332.45C332.53 24.2773 332.57 24.2375 332.57 24.1577V20.6299C332.57 20.4306 332.669 20.331 332.869 20.331H335.021C335.22 20.331 335.32 20.4306 335.32 20.6299V24.1577C335.32 24.2375 335.36 24.2773 335.44 24.2773H338.669C338.868 24.2773 338.967 24.377 338.967 24.5763V26.3402ZM349.884 24.068C351.518 24.068 352.814 24.5464 353.771 25.5031C354.727 26.4399 355.206 27.7154 355.206 29.3299V39.1958C355.206 39.3951 355.106 39.4948 354.907 39.4948H352.634C352.435 39.4948 352.336 39.3951 352.336 39.1958V29.8979C352.336 28.9013 352.047 28.0941 351.469 27.4763C350.891 26.8584 350.123 26.5495 349.166 26.5495C348.23 26.5495 347.462 26.8584 346.864 27.4763C346.266 28.0941 345.968 28.8914 345.968 29.868V39.1958C345.968 39.3951 345.868 39.4948 345.669 39.4948H343.396C343.197 39.4948 343.097 39.3951 343.097 39.1958V24.5763C343.097 24.377 343.197 24.2773 343.396 24.2773H345.669C345.868 24.2773 345.968 24.377 345.968 24.5763V25.6526C345.968 25.6924 345.977 25.7223 345.997 25.7423C346.037 25.7622 346.067 25.7522 346.087 25.7124C346.944 24.6162 348.21 24.068 349.884 24.068ZM372.041 29.9876C372.121 30.8048 372.151 31.7216 372.131 32.7381C372.131 32.9374 372.031 33.0371 371.832 33.0371H362.295C362.215 33.0371 362.175 33.0769 362.175 33.1566C362.175 33.8343 362.235 34.3525 362.355 34.7113C362.574 35.5085 363.013 36.1364 363.67 36.5948C364.348 37.0333 365.195 37.2525 366.212 37.2525C367.686 37.2525 368.823 36.6446 369.62 35.4288C369.719 35.2295 369.849 35.1996 370.008 35.3391L371.713 36.4752C371.852 36.5948 371.882 36.7243 371.802 36.8638C371.244 37.7607 370.447 38.4683 369.411 38.9865C368.394 39.5047 367.238 39.7638 365.942 39.7638C364.488 39.7638 363.262 39.4449 362.265 38.8071C361.269 38.1693 360.521 37.2625 360.023 36.0865C359.545 34.9106 359.305 33.4855 359.305 31.8113C359.305 30.3563 359.415 29.2501 359.634 28.4928C359.993 27.1175 360.711 26.0313 361.787 25.234C362.863 24.4368 364.169 24.0381 365.703 24.0381C367.716 24.0381 369.221 24.5464 370.218 25.5629C371.214 26.5594 371.822 28.0343 372.041 29.9876ZM365.703 26.5196C364.846 26.5196 364.139 26.7388 363.581 27.1773C363.023 27.5959 362.644 28.1639 362.445 28.8814C362.305 29.3199 362.215 29.878 362.175 30.5556C362.175 30.6354 362.215 30.6752 362.295 30.6752H369.141C369.221 30.6752 369.261 30.6354 369.261 30.5556C369.221 29.8979 369.161 29.4096 369.082 29.0907C368.882 28.3134 368.484 27.6955 367.886 27.2371C367.308 26.7588 366.58 26.5196 365.703 26.5196ZM383.621 26.3402C383.621 26.5395 383.521 26.6392 383.322 26.6392H380.093C380.013 26.6392 379.974 26.679 379.974 26.7588V34.6814C379.974 35.5185 380.163 36.1264 380.542 36.5051C380.92 36.8638 381.508 37.0432 382.306 37.0432H383.173C383.372 37.0432 383.472 37.1429 383.472 37.3422V39.1958C383.472 39.3951 383.372 39.4948 383.173 39.4948C382.535 39.5346 382.076 39.5545 381.797 39.5545C380.283 39.5545 379.137 39.2855 378.359 38.7473C377.602 38.1893 377.223 37.1728 377.223 35.6979V26.7588C377.223 26.679 377.183 26.6392 377.104 26.6392H375.28C375.081 26.6392 374.981 26.5395 374.981 26.3402V24.5763C374.981 24.377 375.081 24.2773 375.28 24.2773H377.104C377.183 24.2773 377.223 24.2375 377.223 24.1577V20.6299C377.223 20.4306 377.323 20.331 377.522 20.331H379.675C379.874 20.331 379.974 20.4306 379.974 20.6299V24.1577C379.974 24.2375 380.013 24.2773 380.093 24.2773H383.322C383.521 24.2773 383.621 24.377 383.621 24.5763V26.3402Z" fill="white"/>
</svg>
