<svg width="292" height="56" viewBox="0 0 292 56" fill="none" xmlns="http://www.w3.org/2000/svg">
<rect x="210.734" y="13.4021" width="79.8649" height="34.5316" rx="3.67109" stroke="white" stroke-width="1.46844"/>
<path d="M41.4398 14.4593C35.1321 7.75549 24.7656 7.61099 18.2857 14.1367C11.8058 20.6624 11.6663 31.387 17.974 38.0908L22.1208 33.9149C18.0529 29.5653 18.1509 22.6274 22.3459 18.4027C26.5409 14.1781 33.2472 14.2635 37.3405 18.5876L41.4398 14.4593Z" fill="#00E0CA"/>
<path d="M13.8931 42.2116C20.2008 48.9153 30.5671 49.0596 37.047 42.534C43.5268 36.0083 43.6664 25.2837 37.3588 18.5799L33.2124 22.7556C37.2803 27.1053 37.1823 34.0432 32.9873 38.2678C28.7923 42.4925 22.086 42.407 17.9927 38.0829L13.8931 42.2116Z" fill="#00E0CA"/>
<path d="M60.1476 34.3983L57.3333 37.122C59.942 39.4839 62.8785 40.6648 66.1427 40.6648C68.5458 40.6394 70.5185 40.0934 72.0606 39.0268C73.6156 37.9855 74.4059 36.5062 74.4316 34.5887C74.4316 32.9507 74.0011 31.5983 73.1401 30.5317C72.2148 29.4396 70.7112 28.8174 68.6293 28.665L65.3138 28.4174C64.3371 28.3158 63.656 28.0809 63.2704 27.7127C62.8464 27.3825 62.6472 26.9952 62.6729 26.5508C62.6729 25.8524 62.9363 25.281 63.4632 24.8365C63.9644 24.3921 64.8447 24.1699 66.1041 24.1699C67.2093 24.1699 68.186 24.3286 69.0342 24.646C69.8952 25.0016 70.7112 25.4524 71.4823 25.9984L73.969 23.1223C72.9923 22.2842 71.8871 21.6175 70.6534 21.1223C70.0108 20.8937 69.3233 20.7159 68.5908 20.589C67.8583 20.4747 67.0294 20.4175 66.1041 20.4175C63.9708 20.4175 62.2102 20.9255 60.8223 21.9413C59.3958 22.9572 58.6698 24.481 58.6441 26.5127C58.6698 28.2015 59.2224 29.5158 60.3019 30.4555C61.3556 31.4205 62.7243 31.9793 64.4078 32.1316L67.9547 32.4364C68.7 32.4618 69.2976 32.6205 69.7474 32.9126C70.1843 33.1919 70.4028 33.6872 70.4028 34.3983C70.4028 35.1983 70.0365 35.8205 69.304 36.2649C68.5715 36.7093 67.627 36.9316 66.4704 36.9316C63.8873 36.9316 61.7797 36.0871 60.1476 34.3983Z" fill="white"/>
<path d="M77.3339 40.4363H81.3627V28.665C81.3627 27.2809 81.7418 26.227 82.5 25.5032C83.2454 24.7667 84.1964 24.3984 85.353 24.3984C86.5096 24.3984 87.4541 24.7667 88.1866 25.5032C88.932 26.227 89.3047 27.2809 89.3047 28.665V40.4363H93.3335V27.2936C93.2692 25.0333 92.556 23.3191 91.1938 22.1508C89.8187 20.9953 88.3023 20.4175 86.6445 20.4175C84.4984 20.4175 82.7635 21.1985 81.4398 22.7604H81.3627V12.6653H77.3339V40.4363Z" fill="white"/>
<path d="M97.4695 40.4363H101.498V20.6652H97.4695V40.4363ZM97.4695 16.6462H101.498V12.6653H97.4695V16.6462Z" fill="white"/>
<path d="M105.885 40.4363H109.914V28.665C109.914 27.2809 110.299 26.227 111.07 25.5032C111.803 24.7667 112.747 24.3984 113.904 24.3984C115.061 24.3984 116.012 24.7667 116.757 25.5032C117.489 26.227 117.856 27.2809 117.856 28.665V40.4363H121.884V28.665C121.884 27.2809 122.264 26.227 123.022 25.5032C123.767 24.7667 124.718 24.3984 125.875 24.3984C127.031 24.3984 127.976 24.7667 128.708 25.5032C129.441 26.227 129.807 27.2809 129.807 28.665V40.4363H133.836V27.2936C133.785 25.0333 133.078 23.3191 131.716 22.1508C130.34 20.9953 128.824 20.4175 127.166 20.4175C124.532 20.3921 122.431 21.2556 120.863 23.008C120.169 22.2461 119.404 21.6175 118.569 21.1223C117.721 20.6779 116.603 20.4429 115.215 20.4175C113.056 20.4175 111.314 21.1985 109.991 22.7604H109.914V20.6652H105.885V40.4363Z" fill="white"/>
<path d="M138.357 40.4363H142.386V28.665C142.386 27.2809 142.772 26.227 143.543 25.5032C144.275 24.7667 145.22 24.3984 146.377 24.3984C147.533 24.3984 148.484 24.7667 149.23 25.5032C149.962 26.227 150.328 27.2809 150.328 28.665V40.4363H154.357V28.665C154.357 27.2809 154.736 26.227 155.494 25.5032C156.24 24.7667 157.191 24.3984 158.347 24.3984C159.504 24.3984 160.448 24.7667 161.181 25.5032C161.914 26.227 162.28 27.2809 162.28 28.665V40.4363H166.309V27.2936C166.257 25.0333 165.55 23.3191 164.188 22.1508C162.813 20.9953 161.297 20.4175 159.639 20.4175C157.004 20.3921 154.903 21.2556 153.335 23.008C152.641 22.2461 151.877 21.6175 151.042 21.1223C150.193 20.6779 149.075 20.4429 147.687 20.4175C145.528 20.4175 143.787 21.1985 142.463 22.7604H142.386V20.6652H138.357V40.4363Z" fill="white"/>
<path d="M186.116 32.0555V28.7793C186.091 26.1762 185.275 24.1318 183.668 22.6461C182.088 21.1858 180.154 20.4429 177.866 20.4175C176.915 20.4175 175.951 20.589 174.975 20.9318C173.985 21.2747 173.092 21.8334 172.295 22.608C171.511 23.3699 170.869 24.4111 170.367 25.7317C169.866 27.027 169.616 28.6523 169.616 30.6079C169.616 32.6396 169.905 34.2903 170.483 35.5602C171.01 36.8808 171.698 37.9093 172.546 38.6458C172.983 39.0014 173.452 39.2998 173.953 39.541C174.428 39.8204 174.917 40.0426 175.418 40.2077C176.42 40.5125 177.448 40.6648 178.502 40.6648C181.265 40.6902 183.668 39.6236 185.712 37.4649L182.801 35.0078C181.516 36.2903 180.057 36.9316 178.425 36.9316C177.024 36.9316 175.893 36.5125 175.032 35.6744C174.107 34.8491 173.644 33.6427 173.644 32.0555H186.116ZM173.644 28.7793C173.722 27.2428 174.139 26.0809 174.897 25.2937C175.669 24.5445 176.658 24.1699 177.866 24.1699C179.074 24.1699 180.064 24.5445 180.835 25.2937C181.619 26.0809 182.036 27.2428 182.088 28.7793H173.644Z" fill="white"/>
<path d="M189.154 40.4363H193.182V28.5317C193.208 27.0841 193.632 26.0365 194.455 25.3889C195.187 24.7286 196.068 24.3984 197.096 24.3984C198.008 24.3984 198.888 24.7286 199.737 25.3889L202.667 21.9413C201.471 20.9509 200.071 20.4429 198.464 20.4175C196.318 20.4175 194.583 21.1985 193.26 22.7604H193.182V20.6652H189.154V40.4363Z" fill="white"/>
<path d="M252.001 22.8003L246.333 38.527H243.076L237.398 22.8003H240.664L244.623 34.9025H244.786L248.734 22.8003H252.001Z" fill="white"/>
<path d="M254.622 38.1525H257.752V29.1255C257.752 28.064 258.052 27.2558 258.651 26.7007C259.22 26.1359 259.954 25.8535 260.853 25.8535C261.751 25.8535 262.49 26.1359 263.07 26.7007C263.639 27.2558 263.923 28.064 263.923 29.1255V38.1525H267.054V29.1255C267.054 28.064 267.348 27.2558 267.937 26.7007C268.516 26.1359 269.255 25.8535 270.154 25.8535C271.053 25.8535 271.787 26.1359 272.356 26.7007C272.925 27.2558 273.209 28.064 273.209 29.1255V38.1525H276.34V28.0738C276.3 26.3404 275.751 25.0258 274.692 24.1299C273.624 23.2438 272.446 22.8007 271.158 22.8007C269.111 22.7812 267.478 23.4434 266.26 24.7872C265.721 24.203 265.126 23.7209 264.477 23.3412C263.818 23.0003 262.95 22.8202 261.871 22.8007C260.194 22.8007 258.841 23.3996 257.812 24.5974H257.752V22.9906H254.622V38.1525Z" fill="white"/>
<path d="M236.274 31.8397V29.2951C236.254 27.2732 235.625 25.6853 234.385 24.5313C233.166 23.3971 231.673 22.8201 229.909 22.8004C229.175 22.8004 228.431 22.9336 227.678 23.1999C226.914 23.4662 226.225 23.9001 225.61 24.5018C225.005 25.0935 224.51 25.9023 224.123 26.928C223.736 27.934 223.543 29.1965 223.543 30.7154C223.543 32.2934 223.766 33.5756 224.212 34.5619C224.619 35.5876 225.149 36.3865 225.804 36.9585C226.141 37.2347 226.503 37.4665 226.889 37.6539C227.256 37.8709 227.633 38.0435 228.02 38.1717C228.793 38.4084 229.586 38.5267 230.399 38.5267C232.531 38.5465 234.385 37.718 235.962 36.0413L233.716 34.1328C232.724 35.129 231.599 35.6271 230.34 35.6271C229.259 35.6271 228.387 35.3016 227.722 34.6506C227.008 34.0095 226.651 33.0726 226.651 31.8397H236.274ZM226.651 29.2951C226.711 28.1017 227.033 27.1992 227.618 26.5878C228.213 26.0058 228.977 25.7149 229.909 25.7149C230.841 25.7149 231.604 26.0058 232.199 26.5878C232.804 27.1992 233.126 28.1017 233.166 29.2951H226.651Z" fill="white"/>
</svg>
